<svg preserveAspectRatio="xMidYMid meet" width="279" height="404" overflow="visible" style="display: block;" viewBox="0 0 279 404" fill="none" xmlns="http://www.w3.org/2000/svg">
<g id="Layer_1" clip-path="url(#clip0_0_60)">
<path id="Vector" d="M100.224 374.547L85.3371 383.33L52.1884 402.798C50.7079 403.667 48.8367 404.561 47.1306 403.553L1.49318 376.62C0.378062 375.961 0 374.528 0 373.235V289.353C0.165203 287.47 1.17231 286.452 2.67502 285.543L34.429 266.315L56.0357 219.674L77.3692 174.113C77.6075 173.59 77.9442 173.042 78.2556 172.88C78.6209 172.693 79.5645 172.816 79.9648 173.026L92.8824 179.847L95.046 182.791L111.557 208.076L137.786 145.323L147.965 121.192L161.401 89.0135C162.198 88.5603 163.075 88.6427 163.812 89.1308L178.318 95.6477L194.279 125.801L225.69 61.5769L232.298 48.0677L221.957 42.1785C221.671 42.0137 221.271 41.722 221.134 41.5224C220.963 41.2719 221.36 40.5398 221.573 40.3147L228.276 33.3319L243.491 17.4804L254.156 6.56721L259.951 0.58604C260.621 -0.0669121 261.504 -0.18102 262.346 0.284921L278.244 9.07125L278.822 42.9772L278.997 61.0982C278.876 61.4215 278.685 61.9065 278.523 62.0713C278.32 62.2805 277.662 62.2298 277.291 62.1347L265.202 59.0126L237.588 112.016L228.244 129.855L258.156 147.091C259.306 147.754 260.176 149.114 260.176 150.607L260.17 297.784C260.17 298.982 259.747 300.637 258.785 301.201L232.765 316.45L202.933 333.845C200.875 335.047 199.016 334.752 197.116 333.535L179.513 322.251V339.392C179.513 340.403 178.858 341.487 178.099 342.106L149.217 358.917L123.525 373.828C121.612 374.937 119.931 374.94 118.07 373.704L102.01 363.044L101.991 371.419C101.991 372.617 101.286 373.793 100.218 374.55L100.224 374.547ZM224.416 40.844L236.559 47.7096L255.751 29.0719L274.994 10.1141L261.422 2.61146L251.144 13.0492L240.978 23.5091L232.724 32.0831L224.416 40.8472V40.844ZM39.8871 298.893C44.0553 297.556 47.7311 295.942 51.356 293.952C52.7857 293.166 53.9167 292.031 54.6537 290.519L73.1788 252.626L91.5481 212.992C91.834 212.374 92.3932 211.797 92.9396 211.816C93.3812 211.832 93.9563 212.501 94.2771 212.983L104.183 227.832L119.969 251.377C120.306 251.881 121.558 251.221 121.825 250.66L152.82 185.029L168.917 149.437L175.611 134.178C175.894 133.532 177.146 132.834 177.629 133.668L200.821 173.514C200.951 173.739 201.653 174.084 201.847 173.926L202.527 173.378L214.107 151.659L234.862 112.171L262.975 58.1917C263.388 57.3961 263.941 56.6797 264.58 56.4135L276.671 59.4817L276.516 48.7017L276.287 32.2637L276.061 13.1506C276.087 12.6466 275.906 12.5706 275.601 12.9414L265.117 23.2016L251.001 36.9929L239.037 48.6858L250.15 52.4419C250.865 52.6828 250.725 53.8555 250.382 54.4673L233.982 86.874L217.602 119.376L204.506 145.272C204.211 145.855 203.699 146.473 203.188 146.454C202.584 146.432 202.206 145.887 201.86 145.228L177.511 99.1153L170.642 114.999L153.118 155.501L142.891 178.579L131.33 205.093L122.463 225.078C122.279 225.493 121.599 226.042 121.243 225.953C120.945 225.88 120.427 225.452 120.217 225.138L107.099 205.594L92.336 182.852L85.1433 198.966L72.6323 226.733L57.6909 259.707L39.8935 298.897L39.8871 298.893ZM233.572 82.8644L248.082 54.1915L235.517 49.9156L234.211 49.3895L200.859 117.496L195.614 128.571L203.2 142.99L233.575 82.8612L233.572 82.8644ZM130.473 201.68L149.433 158.185L171.224 107.715L175.662 97.1121L162.995 91.3623L150.513 121.246L113.021 210.393L121.154 222.637L130.473 201.68ZM167.427 158.309L164.854 164.16L198.206 183.127C199.404 183.809 200.741 183.207 201.923 182.582L257.8 149.63L227.129 131.896L204.687 174.224C204.112 175.197 203.381 176.015 202.6 176.271C201.621 176.592 200.401 176.386 199.493 175.866L183.582 166.753L175.64 153.244L167.43 158.309H167.427ZM185.361 165.241L197.116 171.799L176.892 136.945L173.365 144.889L185.361 165.238V165.241ZM174.614 151.323L172.272 147.691L169.213 154.477L174.614 151.323ZM200.535 332.482L257.806 299.118L257.886 189.185L257.863 152.315L204.029 184.056L200.592 185.689L200.566 214.159L200.541 238.315L200.532 332.479L200.535 332.482ZM179.519 319.417L198.238 331.303L198.266 185.527L193.863 183.343L163.879 166.325L157.893 179.587L157.947 210.628L177.104 221.614C178.556 222.447 179.535 223.791 179.535 225.668L179.516 319.42L179.519 319.417ZM37.552 298.858L47.9757 275.945L82.1347 200.447L90.5632 181.362L79.2595 175.378L59.0888 218.606L33.8508 272.95L25.6732 291.067L37.5488 298.858H37.552ZM155.618 209.227L155.558 184.804L146.589 204.225L155.618 209.227ZM83.4118 236.181C83.0465 236.406 82.678 237.408 82.7733 237.697L117.72 257.076C118.991 257.77 120.068 258.135 121.437 257.612L177.206 224.387L145.63 206.307L123.331 252.527C122.324 253.871 120.503 254.42 119.004 253.618L108.046 247.744L101.727 244.21L92.479 230.609L83.415 236.181H83.4118ZM115.471 249.091L99.4207 224.701L92.9587 215.138L89.6642 222.403L103.198 242.521C107.265 244.714 111.068 247.158 115.468 249.088L115.471 249.091ZM91.2114 228.796L88.5173 224.85L84.9972 232.625L91.2114 228.793V228.796ZM121.094 372.484L177.225 339.963L177.244 227.059L122.295 259.754C121.262 259.859 121.113 260.505 121.113 261.545L121.094 372.484ZM102 360.23L118.769 371.26L118.838 260.192L115.172 258.353L81.979 239.868L81.9631 271.384L99.9068 281.837C101.235 282.661 101.934 283.856 102.039 285.552L102.004 360.23H102ZM79.6852 269.869L79.6217 244.372L70.0685 264.468L79.6852 269.869ZM23.6559 290.215L32.7833 269.862L2.82434 288.04L46.9464 313.081C48.2553 313.594 49.4054 313.521 50.5046 312.656L99.3508 284.158L69.0169 266.496L56.2422 292.091C55.5846 293.226 54.873 294.104 53.8595 294.862C49.1385 297.67 44.3095 299.708 39.0325 301.344L37.1263 301.106L24.4565 292.804L23.4017 291.768C23.1634 291.533 23.4621 290.792 23.6559 290.218V290.215ZM49.4784 401.635L81.0005 383.124L99.7352 372.16L99.7638 286.674L80.2317 298.044L49.4752 315.88V401.635H49.4784ZM47.0576 400.732L47.0862 315.813L2.28426 290.399L2.26837 374.398L29.546 390.383L47.0544 400.732H47.0576Z" fill="var(--fill-0, black)"/>
<path id="Vector_2" d="M200.535 332.483L200.544 238.318L200.57 214.162L200.595 185.689L204.029 184.057L257.863 152.315L257.883 189.185L257.806 299.116L200.535 332.483Z" fill="var(--fill-0, #EAF1FF)"/>
<path id="Vector_3" d="M39.8871 298.894L57.6846 259.704L72.626 226.73L85.137 198.963L92.3297 182.849L107.093 205.591L120.211 225.135C120.421 225.449 120.942 225.877 121.237 225.95C121.593 226.039 122.273 225.49 122.457 225.075L131.324 205.09L142.885 178.576L153.112 155.498L170.636 114.996L177.505 99.1125L201.853 145.225C202.199 145.884 202.581 146.426 203.181 146.452C203.696 146.471 204.207 145.852 204.5 145.269L217.595 119.373L233.976 86.8712L250.375 54.4645C250.718 53.8496 250.858 52.6799 250.143 52.439L239.03 48.683L250.995 36.9901L265.11 23.1988L275.594 12.9386C275.899 12.5646 276.08 12.6438 276.055 13.1478L276.281 32.2609L276.509 48.6988L276.665 59.4789L264.573 56.4107C263.935 56.6769 263.382 57.3964 262.969 58.1888L234.856 112.168L214.1 151.656L202.52 173.375L201.84 173.923C201.647 174.078 200.945 173.733 200.814 173.511L177.622 133.665C177.136 132.831 175.888 133.529 175.605 134.175L168.911 149.434L152.813 185.026L121.818 250.658C121.552 251.222 120.3 251.878 119.963 251.374L104.177 227.83L94.2708 212.98C93.9499 212.498 93.3749 211.829 92.9333 211.813C92.3868 211.791 91.8309 212.371 91.5418 212.989L73.1724 252.623L54.6474 290.516C53.9103 292.028 52.7793 293.163 51.3497 293.949C47.7216 295.94 44.0458 297.553 39.8807 298.891L39.8871 298.894Z" fill="var(--fill-0, #2F6BFF)"/>
<path id="Vector_4" d="M121.094 372.484L121.113 261.545C121.113 260.506 121.262 259.859 122.295 259.755L177.244 227.059L177.225 339.963L121.094 372.484Z" fill="var(--fill-0, #EAF1FF)"/>
<path id="Vector_5" d="M49.4784 401.635L49.4753 315.883L80.2317 298.044L99.7638 286.675L99.7352 372.161L81.0005 383.125L49.4784 401.635Z" fill="var(--fill-0, #EAF1FF)"/>
<path id="Vector_6" d="M47.0576 400.732L29.5492 390.383L2.27155 374.398L2.28426 290.399L47.0862 315.81L47.0576 400.732Z" fill="var(--fill-0, #EAF1FF)"/>
<path id="Vector_7" d="M179.519 319.417L179.538 225.665C179.538 223.788 178.559 222.444 177.108 221.611L157.95 210.625L157.896 179.584L163.882 166.322L193.866 183.34L198.27 185.524L198.241 331.3L179.522 319.414L179.519 319.417Z" fill="var(--fill-0, #EAF1FF)"/>
<path id="Vector_8" d="M102 360.23L102.035 285.553C101.931 283.857 101.228 282.659 99.9036 281.838L81.96 271.384L81.9758 239.868L115.169 258.354L118.835 260.192L118.765 371.26L101.997 360.23H102Z" fill="var(--fill-0, #EAF1FF)"/>
<path id="Vector_9" d="M130.473 201.68L121.154 222.638L113.021 210.393L150.513 121.246L162.995 91.3626L175.662 97.1092L171.224 107.715L149.433 158.186L130.473 201.68Z" fill="var(--fill-0, #0B1220)"/>
<path id="Vector_10" d="M37.552 298.859L25.6764 291.071L33.8508 272.95L59.0888 218.606L79.2595 175.381L90.5632 181.362L82.1347 200.447L47.9757 275.945L37.552 298.859Z" fill="var(--fill-0, #0B1220)"/>
<path id="Vector_11" d="M23.6559 290.215C23.4589 290.789 23.1603 291.531 23.4017 291.765L24.4565 292.802L37.1263 301.103L39.0325 301.341C44.3095 299.705 49.1385 297.667 53.8595 294.859C54.873 294.101 55.5846 293.223 56.2422 292.088L69.0169 266.493L99.3508 284.155L50.5046 312.653C49.4054 313.522 48.2553 313.591 46.9464 313.078L2.82434 288.041L32.7834 269.863L23.6559 290.215Z" fill="var(--fill-0, #EAF1FF)"/>
<path id="Vector_12" d="M167.427 158.309L175.637 153.244L183.579 166.753L199.489 175.866C200.398 176.386 201.618 176.592 202.597 176.272C203.381 176.015 204.109 175.197 204.684 174.224L227.126 131.896L257.797 149.631L201.92 182.583C200.738 183.204 199.401 183.806 198.203 183.128L164.851 164.16L167.424 158.309H167.427Z" fill="var(--fill-0, #EAF1FF)"/>
<path id="Vector_13" d="M233.572 82.8647L203.197 142.99L195.61 128.571L200.859 117.497L234.211 49.3898L235.517 49.916L248.082 54.1919L233.572 82.8647Z" fill="var(--fill-0, #0B1220)"/>
<path id="Vector_14" d="M83.4118 236.182L92.4758 230.609L101.724 244.211L108.043 247.745L119 253.618C120.5 254.42 122.32 253.872 123.328 252.528L145.627 206.308L177.203 224.387L121.434 257.612C120.065 258.138 118.988 257.77 117.717 257.076L82.7701 237.697C82.6716 237.408 83.0433 236.407 83.4087 236.182H83.4118Z" fill="var(--fill-0, #EAF1FF)"/>
<path id="Vector_15" d="M224.416 40.8444L232.727 32.0834L240.978 23.5063L251.144 13.0495L261.425 2.61181L274.997 10.1144L255.754 29.0722L236.562 47.7131L224.416 40.8444Z" fill="var(--fill-0, #0B1220)"/>
<path id="Vector_16" d="M185.361 165.241L173.365 144.889L176.892 136.946L197.119 171.799L185.361 165.241Z" fill="var(--fill-0, #0B1220)"/>
<path id="Vector_17" d="M115.471 249.092C111.068 247.158 107.268 244.714 103.201 242.524L89.6673 222.406L92.9619 215.141L99.4239 224.704L115.474 249.095L115.471 249.092Z" fill="var(--fill-0, #0B1220)"/>
</g>
<defs>
<clipPath id="clip0_0_60">
<rect width="279" height="404" fill="white"/>
</clipPath>
</defs>
</svg>
