<svg preserveAspectRatio="xMidYMid meet" width="241" height="415" overflow="visible" style="display: block;" viewBox="0 0 241 415" fill="none" xmlns="http://www.w3.org/2000/svg">
<g id="Vector">
<path d="M189.064 413.189C184.805 416.266 178.906 415.008 174.671 412.492L115.081 377.133L21.7385 322.272L9.81244 315.406C4.29947 311.36 0.739349 305.166 0 298.275L0.0321456 35.3721C0.0321456 31.1175 2.52343 26.3982 6.00319 24.6435L18.5319 18.3297C23.3216 15.918 27.7336 16.1503 32.2581 18.7944L67.4093 39.3222C67.795 37.5354 68.0201 35.6846 69.0326 34.5308L82.4374 30.2602L87.5485 32.8882L86.7931 21.3985C86.7047 20.0364 87.9825 19.3793 89.0352 19.0588L96.4448 16.8474C96.1394 13.9549 96.4448 11.2948 97.4815 8.85103C98.9039 5.49383 101.548 4.03557 104.891 3.25035C107.889 2.54526 110.685 1.19117 113.691 0.301789C117.918 -0.948146 122.716 1.87222 125.673 5.30954C129.008 9.19556 130.913 13.7386 131.451 18.8826C131.829 22.5442 130.776 27.5279 127.666 30.0118L139.906 36.7182C140.508 37.1909 140.854 37.9761 140.733 38.7774L137.455 60.7794L155.36 70.819C156.653 71.2917 157.401 72.4776 157.176 73.8958L158.277 90.2411L196.048 111.971C204.382 118.661 209.621 128.492 210.538 139.213V271.61L229.624 294.021L239.991 306.344C240.971 308.106 241.349 309.997 240.618 311.936C238.729 316.96 234.824 321.038 229.937 323.154C226.755 324.484 223.781 323.506 221.636 321.038L210.594 308.323L210.441 389.472C210.441 393.655 208.874 398.847 205.595 401.219L189.048 413.165L189.064 413.189ZM125.713 29.6432L127.497 27.5199C132.536 21.5106 128.381 8.99525 121.422 4.01153C116.335 0.357876 114.27 1.95234 108.676 4.08365C111.288 5.33358 113.418 6.67967 115.274 8.835C120.522 14.9244 123.423 24.2349 119.381 31.8547L125.713 29.6512V29.6432ZM93.9615 80.9306L146.946 110.032L144.623 76.7081L126.003 66.3641C125.151 65.9314 124.677 65.0981 124.749 64.1447L128.172 41.7099L115.708 34.9314C115.306 34.7071 114.495 34.1061 114.647 33.7456C115.017 32.8482 119.405 31.3739 119.493 24.6835C119.566 19.179 117.38 14.0671 113.811 9.94873C110.565 6.19892 104.875 3.57886 101.17 6.8319C99.137 8.61066 98.4137 11.1826 98.2128 13.8908C98.1646 18.5941 99.7558 22.9689 102.601 26.7507L102.577 27.9927C102.577 28.193 101.958 28.233 101.781 28.201L88.5209 20.9898L90.1764 44.3861C90.0961 44.7707 89.7987 45.5318 89.4772 45.5479L88.328 45.5879L83.5705 43.0079L69.9568 35.8849L63.8331 64.2969L93.9857 80.9306H93.9615ZM64.9341 51.1165L66.9834 41.3493L31.4303 20.6213C28.5453 18.498 24.8084 17.4243 21.5777 19.0508L14.2244 22.7606C15.8156 23.2493 17.1818 23.5137 18.5159 24.2909L48.0335 41.3974L64.9341 51.1245V51.1165ZM98.8879 24.5874L96.8546 18.6582L91.0845 20.4049L98.8879 24.5874ZM186.999 280.68L186.573 280.384V282.258L186.549 285.872V286.529L186.42 399.656C186.42 400.489 186.284 401.595 185.552 401.683L155.344 384.2L73.5089 335.885L14.4253 301.36V30.781L63.0857 59.3693L64.4599 52.9673L30.4419 33.377L19.0623 26.6306C14.7709 24.0906 9.52313 23.4657 5.62548 27.1834C3.4878 29.2266 1.80015 32.5918 1.80015 35.933L1.78408 298.275C2.66005 304.853 6.1157 310.686 11.5804 314.276L52.0437 337.929L143.715 391.86L176.841 411.595C180.465 413.758 185.054 413.606 188.445 411.49C190.125 410.449 191.845 409.351 193.115 407.893C195.976 404.616 197.519 400.257 197.527 395.706L197.543 292.867L186.991 280.672L186.999 280.68ZM137.414 37.5435L125.979 31.2377L117.902 34.05L129.201 40.3077L137.414 37.5435ZM87.7574 35.1958L82.2766 32.1912L72.8901 35.2359L88.3763 43.5207L87.7574 35.1958ZM113.377 162.096C116.664 160.382 119.831 158.811 123.319 157.561C130.68 154.925 138.395 155.126 145.933 157.049C152.346 158.827 157.931 161.76 163.324 165.654C172.726 172.705 179.726 181.783 185.263 192.311L185.368 129.902L150.899 109.944C149.614 110.849 148.681 111.426 147.388 111.971L106.579 89.6481L63.8572 66.0196C62.6598 65.3545 61.8722 65.034 62.2178 63.4396L62.8044 60.7234L43.1233 49.2336L15.7513 33.1527V300.615L71.1301 333.057L137.945 372.374L185.118 399.929L185.215 304.629L185.311 278.669L181.615 274.062C180.047 272.115 181.309 269.326 182.466 267.059L178.376 262.131C173.626 265.384 168.949 267.964 163.701 269.975C154.05 273.669 142.815 272.483 133.38 268.285C126.163 265.08 119.919 260.449 114.559 254.576C103.139 242.068 95.7376 226.284 93.4553 209.466C91.0524 191.718 96.9029 170.726 113.386 162.104L113.377 162.096ZM153.921 72.1811L136.08 62.1976C135.767 61.5166 135.614 60.7474 135.662 60.0022L138.845 38.7694L129.997 41.6057L126.469 64.5533L145.515 75.1457L153.921 72.1811ZM157.345 103.47L155.352 73.431L146.359 76.4757L148.689 109.359L157.345 103.478V103.47ZM208.705 269.278V162.898L208.601 139.509C208.03 129.286 202.67 119.959 194.899 113.477L158.502 92.5727L159.241 104.095L183.648 118.124C186.862 119.967 189.329 122.419 191.572 125.335C195.96 131.032 198.756 137.53 199.367 144.83V258.686L208.697 269.278H208.705ZM191.628 258.365C193.573 257.212 195.509 256.811 197.543 257.196L197.519 146.168C197.519 137.066 190.937 124.614 184.315 120.768L157.803 105.368L152.282 109.15L186.669 129.157L186.581 195.244C190.173 203.408 192.423 211.677 193.139 220.563C194.103 231.876 191.636 242.717 186.268 252.572L191.644 258.357L191.628 258.365ZM182.499 252.02L185.159 250.882C189.378 242.645 191.901 233.375 191.531 223.84C190.744 203.528 181.615 184.515 166.731 170.806C156.565 161.447 141.047 154.701 127.224 158.419C133.677 158.603 139.873 159.612 145.836 162.449C163.83 170.998 176.519 188.537 182.965 207.03C188.1 221.757 188.863 237.693 182.507 252.02H182.499ZM177.058 257.692C183.6 248.959 186.027 236.716 185.151 225.819C184.395 216.404 181.904 207.607 177.813 199.098C174.205 191.59 169.849 184.659 164.248 178.522C154.564 167.905 141.36 159.612 126.67 160.302C114.422 160.87 104.666 168.522 99.5147 179.451C92.74 193.817 93.616 209.554 98.7512 224.425C104.192 240.169 114.84 256.01 129.482 264.359C145.676 273.581 165.59 273.012 177.066 257.692H177.058ZM183.262 265.336C185.376 262.652 187.176 260.889 189.948 259.119L184.451 252.893L178.593 259.968L183.262 265.336ZM237.034 305.607L197.486 259.255C196.643 258.814 195.084 258.766 194.208 259.079C189.193 260.849 185.183 264.471 183.174 269.398C182.82 270.256 182.378 272.483 183.029 273.252L194.802 287.178L222.584 319.468C223.974 312.762 230.516 306.408 237.025 305.607H237.034ZM208.625 389.4L208.713 362.615V305.983L199.383 295.327V396.043C199.086 399.336 198.467 401.964 197.277 405.065L204.261 400.257C206.881 397.445 208.609 393.639 208.625 389.408V389.4ZM239.219 309.805C239.3 309.308 239.043 308.203 238.729 307.866C236.559 305.526 226.144 311.135 224.465 319.388C224.328 320.045 224.617 321.159 224.995 321.543C227.462 324.083 237.885 317.89 239.211 309.797L239.219 309.805Z" fill="var(--fill-0, #0B1220)"/>
<path d="M113.377 162.096C96.8868 170.718 91.0363 191.718 93.4472 209.458C95.7296 226.276 103.131 242.06 114.551 254.568C119.919 260.441 126.155 265.072 133.372 268.277C142.807 272.467 154.042 273.653 163.693 269.967C168.941 267.956 173.618 265.376 178.368 262.123L182.458 267.051C181.301 269.318 180.039 272.099 181.606 274.054L185.303 278.661L185.207 304.621L185.11 399.921L137.937 372.366L71.1221 333.049L15.7433 300.607V33.1446L43.1153 49.2255L62.7964 60.7153L62.2097 63.4315C61.8642 65.026 62.6517 65.3545 63.8492 66.0115L106.571 89.6401L147.379 111.963C148.673 111.418 149.606 110.833 150.891 109.936L185.359 129.894L185.255 192.303C179.718 181.775 172.718 172.697 163.316 165.646C157.923 161.752 152.338 158.819 145.925 157.041C138.387 155.118 130.68 154.917 123.31 157.553C119.823 158.803 116.648 160.374 113.369 162.088L113.377 162.096ZM55.9253 115.4L55.9092 89.5119L33.7609 76.5879C33.5198 76.4517 32.668 76.3956 32.5233 76.636C32.4108 76.8123 32.2822 77.301 32.2822 77.5414V103.037L54.8886 116.297C55.2422 116.273 55.9333 115.769 55.9333 115.4H55.9253ZM65.0386 98.1173L64.4037 99.1989L163.902 157.289L164.537 156.207L65.0386 98.1173ZM65.0305 107.139L64.468 108.093L114.286 137.418L114.848 136.465L65.0305 107.139ZM54.1251 152.209C54.5591 152.465 55.0734 152.658 55.3226 152.65C55.5074 152.642 55.7404 152.241 55.9092 151.961V126.04L33.1823 112.716C32.7644 112.467 31.9768 113.854 32.234 114.262V139.405L54.1251 152.217V152.209ZM64.9662 116.097L64.3876 117.083L126.228 153.211L126.806 152.225L64.9662 116.097ZM109.174 161.455L112.325 159.492L64.8135 131.689V135.511L109.174 161.455ZM102.159 167.176L104.473 164.692L64.8778 141.625L64.8376 145.342L102.167 167.176H102.159ZM97.1681 174.211L98.7432 171.375L64.7975 151.592L64.91 155.406L97.1681 174.219V174.211ZM54.9931 194.434C55.4753 194.194 55.9092 193.673 55.9092 193.353L55.869 167.929L33.0055 154.613C32.6438 154.965 32.2179 155.598 32.2179 155.927V181.11L54.9931 194.418V194.434ZM64.9984 176.334L64.4278 177.296L90.2568 192.503L90.8274 191.542L64.9984 176.334ZM64.9502 185.332L64.3715 186.302L89.4933 201.149L90.0719 200.179L64.9502 185.332ZM55.8931 230.21V204.955L32.9492 191.55C32.4349 191.991 32.2179 192.439 32.1617 193.008L32.1777 218.191L54.4225 231.235L55.5476 231.299C55.7404 231.307 55.8931 230.546 55.8931 230.21ZM64.8939 194.186L64.3153 195.156L90.1443 210.403L90.7229 209.434L64.8939 194.186ZM95.4161 227.87L74.401 215.619L64.693 209.858L64.7412 213.672L97.2645 232.662L95.4161 227.87ZM105.558 247.316L102.215 241.563L64.8216 219.69C64.6528 221.188 64.6609 222.245 64.8055 223.479L105.558 247.316ZM137.985 272.499C129.49 269.999 122.443 265.368 116.094 259.615L100.085 250.305L64.7894 229.649C64.6126 230.963 64.6207 232.093 64.7814 233.415L164.119 291.433C164.256 289.838 164.24 288.813 164.015 287.651L137.977 272.491L137.985 272.499ZM55.861 270.576V245.257L32.9412 231.924C32.4349 232.341 32.2179 232.798 32.1456 233.367L32.1054 258.462L54.3984 271.618C55.0574 271.938 55.8128 271.482 55.861 270.568V270.576ZM64.9019 254.223L64.3072 255.225L163.581 314.068L164.176 313.066L64.9019 254.223ZM64.8859 263.397L64.2751 264.423L113.908 293.732L114.519 292.707L64.8859 263.397ZM54.0769 307.826C54.4546 308.05 55.3467 308.163 55.4431 307.882L55.8047 306.848L55.8289 281.641L33.126 268.261C32.7564 268.261 32.1295 268.757 32.1295 269.118L32.1054 294.838L54.0689 307.834L54.0769 307.826ZM64.8216 272.283L64.259 273.236L163.5 331.791L164.063 330.838L64.8216 272.283ZM163.782 346.085L140.002 332.24L78.8853 296.128L64.6287 287.619L64.5644 291.377L135.405 333.201L163.709 349.747L163.79 346.085H163.782ZM116.029 331.623C116.134 330.141 116.126 329.027 115.949 327.761L64.7492 297.442L64.5403 301.192L74.3447 306.921L116.021 331.631L116.029 331.623ZM163.669 369.281L163.701 365.611L131.556 346.911L64.685 307.425L64.5242 311.095L104.24 334.427L120.409 343.994L163.669 369.281Z" fill="#EAF1FF"/>
<path d="M186.999 280.68L197.551 292.875L197.535 395.714C197.535 400.265 195.984 404.624 193.123 407.901C191.853 409.359 190.125 410.449 188.453 411.499C185.054 413.614 180.473 413.766 176.849 411.603L143.723 391.868L52.0517 337.937L11.5885 314.284C6.12374 310.694 2.66808 304.861 1.79212 298.283L1.80819 35.941C1.80819 32.5998 3.49583 29.2266 5.63351 27.1914C9.53117 23.4657 14.7789 24.0986 19.0704 26.6386L30.4499 33.385L64.468 52.9754L63.0937 59.3773L14.4253 30.781V301.352L73.5089 335.877L155.344 384.192L185.552 401.675C186.284 401.595 186.42 400.489 186.42 399.648L186.549 286.521V285.864L186.565 282.25V280.376L186.999 280.672L186.999 280.68Z" fill="#EAF1FF"/>
<path d="M93.9615 80.9306L63.809 64.2969L69.9327 35.8849L83.5464 43.0079L88.3039 45.5879L89.4531 45.5479C89.7746 45.5398 90.0719 44.7787 90.1523 44.3861L88.4968 20.9898L101.757 28.201C101.934 28.233 102.552 28.201 102.552 27.9927L102.577 26.7507C99.7317 22.9689 98.1485 18.5941 98.1887 13.8908C98.3816 11.1826 99.1129 8.61867 101.146 6.8319C104.859 3.57886 110.541 6.19892 113.787 9.94873C117.356 14.0671 119.541 19.179 119.469 24.6835C119.381 31.3739 114.993 32.8482 114.623 33.7456C114.47 34.1061 115.282 34.7071 115.684 34.9314L128.148 41.7099L124.725 64.1447C124.653 65.0981 125.127 65.9314 125.979 66.3641L144.599 76.7081L146.921 110.032L93.9374 80.9306H93.9615ZM109.769 12.729C108.315 11.7435 106.514 11.447 104.875 12.2884C103.878 12.8011 102.802 14.2434 102.528 15.8699C101.323 22.9128 107.31 30.8851 112.156 28.858C117.002 26.8309 115.941 16.9115 109.777 12.729H109.769Z" fill="#2F6BFF"/>
<path d="M177.058 257.692C165.582 273.012 145.668 273.581 129.474 264.359C114.832 256.018 104.184 240.177 98.7432 224.425C93.6079 209.554 92.732 193.809 99.5067 179.451C104.658 168.522 114.414 160.878 126.662 160.302C141.36 159.612 154.556 167.905 164.24 178.522C169.841 184.659 174.197 191.582 177.805 199.098C181.896 207.607 184.387 216.404 185.143 225.819C186.018 236.708 183.591 248.959 177.05 257.692H177.058ZM174.374 244.167C180.457 228.896 176.423 211.901 168.491 197.832C161.604 185.613 150.04 174.043 136.153 170.838C122.435 167.665 110.42 174.828 105.47 187.672C102.432 195.548 101.942 203.849 103.445 212.206C105.751 225.074 111.553 236.868 120.208 246.651C127.023 254.359 136.651 260.336 147.05 261.306C159.691 262.484 169.721 255.841 174.374 244.159V244.167Z" fill="#EAF1FF"/>
<path d="M208.705 269.278L199.367 258.686V144.83C198.764 137.522 195.968 131.032 191.58 125.335C189.338 122.427 186.87 119.967 183.656 118.124L159.249 104.095L158.51 92.5727L194.907 113.477C202.678 119.959 208.03 129.286 208.609 139.509L208.705 162.898V269.278Z" fill="var(--fill-0, #0B1220)"/>
<path d="M191.628 258.365L186.252 252.58C191.62 242.733 194.087 231.884 193.123 220.571C192.407 211.685 190.157 203.408 186.565 195.252L186.653 129.165L152.266 109.158L157.787 105.376L184.299 120.776C190.921 124.622 197.503 137.074 197.503 146.176L197.527 257.204C195.501 256.819 193.557 257.22 191.612 258.373L191.628 258.365Z" fill="#EAF1FF"/>
<path d="M237.034 305.607C230.524 306.408 223.982 312.762 222.592 319.468L194.81 287.178L183.037 273.252C182.386 272.483 182.836 270.264 183.182 269.398C185.199 264.471 189.201 260.841 194.216 259.079C195.092 258.774 196.643 258.814 197.494 259.255L237.042 305.607H237.034Z" fill="#EAF1FF"/>
<path d="M208.625 389.4C208.609 393.631 206.881 397.437 204.261 400.249L197.277 405.057C198.467 401.964 199.086 399.328 199.375 396.035V295.319L208.713 305.975V362.607L208.625 389.392V389.4Z" fill="var(--fill-0, #0B1220)"/>
<path d="M182.499 252.02C188.855 237.693 188.092 221.757 182.957 207.03C176.511 188.537 163.822 170.998 145.828 162.449C139.865 159.612 133.677 158.603 127.216 158.419C141.039 154.701 156.557 161.447 166.723 170.806C181.607 184.515 190.736 203.528 191.523 223.84C191.893 233.375 189.378 242.637 185.151 250.882L182.49 252.02H182.499Z" fill="var(--fill-0, #0B1220)"/>
<path d="M64.9341 51.1165L48.0335 41.3894L18.5159 24.2829C17.1818 23.5057 15.8156 23.2413 14.2244 22.7526L21.5777 19.0428C24.8084 17.4163 28.5372 18.49 31.4303 20.6132L66.9834 41.3413L64.9341 51.1085V51.1165Z" fill="var(--fill-0, #0B1220)"/>
<path d="M153.921 72.1811L145.515 75.1457L126.469 64.5533L129.997 41.6057L138.845 38.7694L135.662 60.0022C135.614 60.7554 135.767 61.5166 136.08 62.1976L153.921 72.1811Z" fill="var(--fill-0, #0B1220)"/>
<path d="M157.345 103.47L148.689 109.351L146.359 76.4677L155.352 73.431L157.345 103.47Z" fill="var(--fill-0, #0B1220)"/>
<path d="M125.713 29.6432L119.381 31.8466C123.423 24.2268 120.522 14.9244 115.274 8.82699C113.418 6.67967 111.288 5.33358 108.676 4.07563C114.27 1.94433 116.335 0.349864 121.422 4.00352C128.373 8.98724 132.528 21.5026 127.497 27.5119L125.713 29.6352V29.6432Z" fill="var(--fill-0, #0B1220)"/>
<path d="M239.219 309.805C237.893 317.89 227.462 324.091 225.003 321.551C224.625 321.167 224.344 320.045 224.473 319.396C226.144 311.143 236.567 305.534 238.737 307.874C239.051 308.211 239.308 309.308 239.227 309.813L239.219 309.805Z" fill="#EAF1FF"/>
<path d="M87.7574 35.1958L88.3763 43.5207L72.8901 35.2359L82.2766 32.1912L87.7574 35.1958Z" fill="var(--fill-0, #0B1220)"/>
<path d="M137.414 37.5435L129.201 40.3077L117.902 34.05L125.979 31.2377L137.414 37.5435Z" fill="var(--fill-0, #0B1220)"/>
<path d="M183.262 265.336L178.593 259.968L184.451 252.893L189.948 259.119C187.184 260.881 185.376 262.652 183.262 265.336Z" fill="#EAF1FF"/>
<path d="M98.8879 24.5874L91.0845 20.4049L96.8546 18.6582L98.8879 24.5874Z" fill="var(--fill-0, #0B1220)"/>
<path d="M163.669 369.281L120.409 343.986L104.24 334.427L64.5162 311.095L64.6769 307.425L131.548 346.911L163.693 365.611L163.669 369.281Z" fill="var(--fill-0, #0B1220)"/>
<path d="M163.782 346.085L163.709 349.739L135.405 333.193L64.5644 291.377L64.6287 287.619L78.8853 296.128L140.002 332.232L163.782 346.085Z" fill="var(--fill-0, #0B1220)"/>
<path d="M137.985 272.499L164.023 287.659C164.248 288.821 164.264 289.846 164.127 291.441L64.7894 233.423C64.6287 232.093 64.6207 230.963 64.7975 229.657L100.093 250.313L116.102 259.623C122.443 265.376 129.49 270.007 137.993 272.507L137.985 272.499Z" fill="var(--fill-0, #0B1220)"/>
<path d="M116.029 331.623L74.3527 306.913L64.5483 301.184L64.7573 297.434L115.957 327.753C116.134 329.019 116.142 330.133 116.038 331.615L116.029 331.623Z" fill="var(--fill-0, #0B1220)"/>
<path d="M109.174 161.455L64.8216 135.511L64.8135 131.689L112.333 159.492L109.174 161.455Z" fill="var(--fill-0, #0B1220)"/>
<path d="M105.558 247.316L64.8055 223.479C64.6609 222.245 64.6528 221.188 64.8216 219.69L102.215 241.563L105.558 247.316Z" fill="var(--fill-0, #0B1220)"/>
<path d="M102.159 167.176L64.8296 145.334L64.8698 141.617L104.473 164.692L102.159 167.176Z" fill="var(--fill-0, #0B1220)"/>
<path d="M55.9253 115.4C55.9253 115.769 55.2342 116.281 54.8806 116.297L32.2822 103.037V77.5414C32.2822 77.301 32.4108 76.8123 32.5233 76.636C32.668 76.4036 33.5278 76.4517 33.7609 76.5879L55.9092 89.5119L55.9253 115.4ZM54.5671 114.503V90.2411L33.5921 78.0462L33.5761 102.316L54.5671 114.503Z" fill="var(--fill-0, #0B1220)"/>
<path d="M54.1251 152.209L32.242 139.397V114.254C31.9849 113.846 32.7644 112.459 33.1903 112.708L55.9092 126.032V151.953C55.7485 152.233 55.5154 152.626 55.3306 152.642C55.0815 152.658 54.5671 152.457 54.1332 152.201L54.1251 152.209ZM54.5671 150.895L54.5993 126.818L33.5359 114.398L33.5921 138.644L54.5752 150.895H54.5671Z" fill="var(--fill-0, #0B1220)"/>
<path d="M55.8931 230.21C55.8931 230.546 55.7404 231.307 55.5476 231.299L54.4225 231.235L32.1777 218.191L32.1617 193.008C32.2179 192.431 32.4349 191.991 32.9492 191.55L55.8771 204.955V230.21L55.8931 230.21ZM54.535 229.753L54.5993 205.724L33.4716 193.337L33.4153 217.398L54.535 229.753Z" fill="var(--fill-0, #0B1220)"/>
<path d="M55.861 270.576C55.8128 271.482 55.0573 271.946 54.3984 271.626L32.1054 258.47L32.1456 233.375C32.2099 232.806 32.4349 232.349 32.9412 231.932L55.853 245.265V270.584L55.861 270.576ZM54.5109 270.128L54.5832 246.042L33.4475 233.695L33.3993 257.74L54.5109 270.12V270.128Z" fill="var(--fill-0, #0B1220)"/>
<path d="M54.0769 307.826L32.1134 294.83L32.1376 269.11C32.1376 268.749 32.7564 268.261 33.1341 268.253L55.8369 281.633L55.8128 306.84L55.4511 307.874C55.3547 308.146 54.4627 308.034 54.0849 307.818L54.0769 307.826ZM54.4868 306.512L54.543 282.363L33.4234 269.951L33.3912 294.085L54.4868 306.52V306.512Z" fill="var(--fill-0, #0B1220)"/>
<path d="M54.9931 194.434L32.2179 181.126V155.943C32.2179 155.606 32.6438 154.981 33.0055 154.629L55.869 167.945L55.9092 193.369C55.9092 193.689 55.4672 194.21 54.9931 194.45V194.434ZM54.5671 192.592V168.691L33.5359 156.391V180.341L54.5671 192.592Z" fill="var(--fill-0, #0B1220)"/>
<path d="M97.1681 174.211L64.91 155.398L64.7975 151.584L98.7432 171.367L97.1681 174.211Z" fill="var(--fill-0, #0B1220)"/>
<path d="M95.4161 227.87L97.2645 232.654L64.7412 213.664L64.693 209.858L74.401 215.611L95.4161 227.87Z" fill="var(--fill-0, #0B1220)"/>
<path d="M65.0322 98.1146L64.3947 99.2002L163.899 157.288L164.536 156.203L65.0322 98.1146Z" fill="var(--fill-0, #0B1220)"/>
<path d="M64.9036 254.209L64.3081 255.207L163.582 314.046L164.178 313.048L64.9036 254.209Z" fill="var(--fill-0, #0B1220)"/>
<path d="M64.8158 272.311L64.2509 273.263L163.493 331.826L164.058 330.875L64.8158 272.311Z" fill="var(--fill-0, #0B1220)"/>
<path d="M64.9727 116.103L64.3917 117.091L126.226 153.217L126.807 152.229L64.9727 116.103Z" fill="var(--fill-0, #0B1220)"/>
<path d="M64.8729 263.405L64.2667 264.425L113.898 293.737L114.504 292.716L64.8729 263.405Z" fill="var(--fill-0, #0B1220)"/>
<path d="M65.0358 107.138L64.4678 108.097L114.286 137.425L114.854 136.466L65.0358 107.138Z" fill="var(--fill-0, #0B1220)"/>
<path d="M64.9941 176.339L64.4221 177.305L90.2479 192.508L90.82 191.542L64.9941 176.339Z" fill="var(--fill-0, #0B1220)"/>
<path d="M64.8881 194.186L64.3149 195.152L90.1429 210.399L90.7161 209.434L64.8881 194.186Z" fill="var(--fill-0, #0B1220)"/>
<path d="M64.9504 185.327L64.3726 186.299L89.4874 201.143L90.0653 200.171L64.9504 185.327Z" fill="var(--fill-0, #0B1220)"/>
<path d="M109.769 12.729C115.933 16.9115 117.066 26.8068 112.148 28.858C107.23 30.9092 101.323 22.9128 102.52 15.8699C102.802 14.2354 103.87 12.7931 104.867 12.2883C106.506 11.447 108.307 11.7435 109.761 12.729L109.769 12.729ZM108.853 14.3075C108.001 13.6745 106.563 13.5623 105.823 13.9149C102.954 15.301 103.67 22.7846 108.515 26.6706C109.327 27.3196 110.934 27.5039 111.674 27.1113C114.752 25.5008 113.739 17.9291 108.853 14.2995V14.3075Z" fill="var(--fill-0, #0B1220)"/>
<path d="M174.374 244.167C169.721 255.85 159.691 262.484 147.05 261.314C136.643 260.344 127.015 254.367 120.208 246.659C111.561 236.876 105.759 225.082 103.445 212.214C101.942 203.857 102.432 195.556 105.47 187.68C110.42 174.836 122.435 167.681 136.153 170.846C150.04 174.051 161.604 185.621 168.491 197.84C176.423 211.909 180.457 228.904 174.374 244.175V244.167ZM156.854 258.413C159.948 257.989 162.375 256.651 164.65 254.856C175.073 246.619 177.355 230.787 174.542 218.063C170.532 199.915 158.148 180.95 140.516 173.987C136.41 172.368 132.159 171.407 127.763 171.855C123.367 172.304 118.625 173.658 115.435 176.911C111.634 180.789 109.56 185.893 108.315 191.117C104.063 208.937 111.618 230.05 123.6 243.583C131.733 252.765 144.35 260.12 156.854 258.413ZM118.979 240.666C112.011 231.227 107.543 220.435 105.863 208.801C104.843 201.758 105.502 195.268 107.173 188.353C104.545 194.635 103.742 201.517 104.626 208.488C106.547 223.527 113.329 237.669 124.154 248.254C129.595 253.574 136.209 257.628 143.442 258.982C133.115 255.056 125.408 249.383 118.971 240.666H118.979Z" fill="var(--fill-0, #0B1220)"/>
<path d="M54.5671 114.503L33.5841 102.316L33.6002 78.0462L54.5671 90.2491V114.503Z" fill="#EAF1FF"/>
<path d="M54.5671 150.895L33.5841 138.644L33.5278 114.398L54.5912 126.818L54.5591 150.895H54.5671ZM49.7533 131.729C50.1793 131.329 50.4284 130.6 50.2355 130.063C50.1069 129.718 49.1908 129.31 48.8131 129.638L42.6411 135.046L39.6114 129.526C39.3944 129.125 37.988 130.119 38.189 130.519L41.6044 137.458C41.9821 138.227 43.2358 137.851 43.7823 137.338L49.7614 131.729H49.7533Z" fill="#2F6BFF"/>
<path d="M54.535 229.753L33.4153 217.398L33.4716 193.337L54.5993 205.724L54.535 229.753ZM49.9542 210.019C50.2355 209.754 50.2677 208.881 50.0748 208.576C49.906 208.32 49.0542 208.08 48.7809 208.312L42.4724 213.672L39.5793 208.272C39.1855 207.959 37.8595 208.897 38.0684 209.329L41.3714 216.1C41.6205 216.621 42.6652 216.797 43.1072 216.38L49.9542 210.027V210.019Z" fill="#2F6BFF"/>
<path d="M54.5109 270.128L33.3993 257.748L33.4475 233.695L54.5832 246.042L54.5109 270.128Z" fill="#EAF1FF"/>
<path d="M54.4868 306.512L33.3912 294.077L33.4234 269.943L54.543 282.355L54.4868 306.504V306.512ZM49.8176 286.577C49.8899 286.313 49.9864 285.552 49.9864 285.143C49.9864 284.814 49.2229 284.606 48.8131 284.63L42.3116 290.255L39.4828 284.878C39.2899 284.518 38.2774 284.846 38.1327 285.135C37.988 285.423 37.9318 286.176 38.0845 286.481L41.3714 292.843C41.5884 293.259 42.617 293.356 42.9063 293.027L49.8096 286.577H49.8176Z" fill="#2F6BFF"/>
<path d="M54.5671 192.592L33.5278 180.341V156.383L54.5671 168.691V192.592Z" fill="#EAF1FF"/>
<path d="M156.854 258.413C144.35 260.12 131.725 252.765 123.6 243.583C111.618 230.05 104.063 208.937 108.315 191.117C109.56 185.893 111.634 180.797 115.435 176.911C118.625 173.658 123.302 172.312 127.763 171.855C132.223 171.399 136.41 172.36 140.516 173.987C158.148 180.95 170.524 199.915 174.542 218.063C177.355 230.787 175.073 246.619 164.65 254.856C162.375 256.651 159.948 257.997 156.854 258.413ZM167.937 216.196L167.977 212.166L115.692 183.105L114.165 186.414L149.437 206.02L167.937 216.188V216.196ZM147.203 215.779L147.315 211.701L112.453 192.159L111.698 196.069L120.867 201.101L147.203 215.779ZM112.574 210.627L112.068 211.517L167.808 243.078L168.314 242.188L112.574 210.627ZM114.607 220.507L114.109 221.38L150.996 242.309L151.494 241.435L114.607 220.507Z" fill="#EAF1FF"/>
<path d="M118.979 240.666C125.408 249.375 133.123 255.056 143.45 258.982C136.217 257.628 129.603 253.574 124.162 248.254C113.329 237.669 106.547 223.527 104.634 208.488C103.742 201.517 104.554 194.643 107.181 188.353C105.518 195.268 104.859 201.758 105.871 208.801C107.551 220.435 112.019 231.227 118.987 240.666H118.979Z" fill="var(--fill-0, #0B1220)"/>
<path d="M49.7533 131.729L43.7743 137.338C43.2278 137.851 41.9741 138.235 41.5964 137.458L38.1809 130.519C37.98 130.119 39.3864 129.133 39.6034 129.526L42.6331 135.046L48.805 129.638C49.1827 129.31 50.0989 129.71 50.2275 130.063C50.4284 130.608 50.1712 131.337 49.7453 131.729L49.7533 131.729Z" fill="var(--fill-0, #0B1220)"/>
<path d="M49.9542 210.019L43.1072 216.372C42.6572 216.789 41.6205 216.613 41.3714 216.092L38.0684 209.321C37.8595 208.897 39.1774 207.959 39.5793 208.264L42.4724 213.664L48.7809 208.304C49.0542 208.072 49.906 208.312 50.0748 208.568C50.2757 208.873 50.2436 209.746 49.9542 210.011L49.9542 210.019Z" fill="var(--fill-0, #0B1220)"/>
<path d="M49.8176 286.577L42.9144 293.027C42.6251 293.356 41.5964 293.259 41.3794 292.843L38.0925 286.481C37.9318 286.176 37.988 285.431 38.1407 285.135C38.2934 284.838 39.298 284.518 39.4909 284.878L42.3197 290.255L48.8211 284.63C49.231 284.606 49.9944 284.814 49.9944 285.143C49.9944 285.552 49.898 286.313 49.8257 286.577H49.8176Z" fill="var(--fill-0, #0B1220)"/>
<path d="M167.937 216.196L149.437 206.028L114.165 186.422L115.692 183.113L167.977 212.166L167.937 216.196Z" fill="var(--fill-0, #0B1220)"/>
<path d="M147.203 215.779L120.867 201.101L111.69 196.069L112.453 192.159L147.307 211.701L147.203 215.779Z" fill="var(--fill-0, #0B1220)"/>
<path d="M112.575 210.62L112.067 211.512L167.812 243.073L168.32 242.181L112.575 210.62Z" fill="var(--fill-0, #0B1220)"/>
<path d="M114.605 220.5L114.108 221.37L151.002 242.3L151.498 241.43L114.605 220.5Z" fill="var(--fill-0, #0B1220)"/>
</g>
</svg>
