<svg preserveAspectRatio="xMidYMid meet" width="424" height="379" overflow="visible" style="display: block;" viewBox="0 0 424 379" fill="none" xmlns="http://www.w3.org/2000/svg">
<g id="Layer_1" clip-path="url(#clip0_0_78)">
<path id="Vector" d="M123.92 287.433V251.467C125.215 248.328 126.137 244.054 129.355 242.027L143.061 233.389L148.382 230.106L160.594 222.705L164.816 219.621C161.076 216.553 157.808 213.911 154.833 210.436C148.017 202.464 143.622 192.981 141.39 182.731L140.248 175.62C139.738 172.446 139.455 169.175 139.796 166.02L140.452 159.946C141.362 151.493 144.109 143.493 148.155 136.1C153.519 126.301 161.249 119.331 171.322 114.63C171.863 111.601 171.958 108.689 172.315 105.754C173.154 98.8662 176.768 90.6123 180.52 84.6949C185.515 76.8168 192.382 70.4649 201.03 66.8996C204.268 65.5651 207.513 64.7315 210.852 63.7296C211.523 53.198 217.409 40.467 225.112 33.8412L228.294 31.1016C232.819 27.8807 237.841 25.3642 243.21 23.7479L247.326 22.9339L252.87 22.1316C257.465 21.4663 260.773 22.5856 264.305 22.249C266.255 19.4703 267.935 17.3296 270.058 14.8718C272.282 12.2966 275.088 10.3007 278.011 8.32038C283.784 4.41066 290.466 1.82375 297.49 0.896222L302.285 0.262213C305.075 -0.105668 308.356 -0.0704454 311.15 0.254386L317.514 0.994063L321.654 1.80418C329.173 3.2718 341.898 9.11485 346.917 14.0969L352.823 19.9634C357.939 25.7439 361.283 32.6436 363.696 39.8447C374.679 41.6763 383.599 46.1613 391.137 54.1255C399.55 63.3734 404.027 75.7131 403.191 88.2328L402.037 96.6667C412.891 102.322 420.378 112.165 422.807 124.09L423.984 132.21L423.922 145.106C422.34 163.214 414.28 181.953 399.585 192.962C393.032 197.795 385.984 201.043 377.842 202.127C377.559 208.741 376.265 214.714 374.091 220.889L405.789 240.32C410.6 243.522 413.503 248.371 413.492 254.222L413.429 285.852C413.421 288.912 412.087 292.055 410.215 294.309C409.128 295.62 407.763 297.37 406.334 298.258L382.884 312.848L377.567 316.202L283.199 375.92C274.688 380.045 264.815 380.068 256.426 375.717L211.205 348.075L132.647 299.522C127.981 296.638 125.046 292.56 123.904 287.425L123.92 287.433ZM279.852 53.5072L254.938 70.1636C252.972 71.4786 252.294 74.1085 252.282 76.2767C252.258 80.5582 252.431 84.4601 252.172 88.6986C251.681 96.6589 245.427 103.656 237.563 104.744L224.665 106.529C219.771 107.206 215.663 112.227 215.651 117.327L215.577 144.323C215.573 146.158 214.713 147.301 213.254 148.248L196.836 158.89C192.739 161.543 190.169 166.834 189.871 171.636C189.572 176.438 189.772 180.692 189.757 185.436C189.757 186.598 189.101 187.819 188.356 188.645C182.38 195.239 180.159 203.591 180.343 212.358C180.516 220.486 181.979 227.993 185.727 235.115C192.61 248.191 206.763 255.251 221.396 252.48C215.832 240.923 214.313 228.603 214.47 216.244C215.227 202.581 218.426 189.533 224.261 177.201C232.521 160.095 245.505 145.986 263.728 140.104C263.473 128.214 265.643 116.787 270.693 106.29C278.788 89.45 293.735 77.4977 312.66 76.8089C318.68 55.5031 336.562 39.2655 359.191 39.5473C356.107 31.0312 351.563 23.3722 344.602 17.6113C321.207 -1.74157 282.685 -1.72982 267.016 25.9669C266.381 27.0941 264.65 26.8749 263.469 26.6597C249.515 24.1275 235.413 28.3738 225.85 38.8193C213.803 51.9809 215.412 65.6903 214.274 66.9035C213.897 67.3066 212.838 67.5454 212.053 67.6667C193.167 70.5276 180.123 87.3405 176.372 105.547C174.936 112.505 175.634 119.17 178.479 125.608C178.86 126.469 178.012 127.886 177.271 128.187C174.265 129.412 173.029 123.381 172.012 118.783C164.482 122.34 158.153 127.847 153.656 134.887C141.252 154.307 140.644 178.861 151.906 198.938C157.458 208.839 165.86 216.545 176.623 221.085L176.031 211.571C175.799 201.9 179.06 192.59 185.582 185.459L185.672 171.703C185.715 165.382 189.2 158.905 194.536 155.43L211.417 144.44L211.315 119.334C211.284 111.1 216.11 103.547 224.484 102.318L237.896 100.346C243.437 99.1284 247.993 93.7197 248.071 88.1154L248.268 74.4295C248.319 70.8133 250.708 67.9524 253.53 66.066L277.576 49.9849C275.265 44.3336 278.388 38.0014 284.011 36.4242C289.878 34.7765 295.885 38.471 296.717 44.6232C297.318 49.0456 295.053 53.061 291.471 54.9043C287.59 56.9003 283.38 56.2859 279.852 53.5189V53.5072ZM292.675 46.1026C292.675 42.8699 290.05 40.2517 286.813 40.2517C283.576 40.2517 280.951 42.8699 280.951 46.1026C280.951 49.3352 283.576 51.9535 286.813 51.9535C290.05 51.9535 292.675 49.3352 292.675 46.1026ZM290.094 201.219L290.046 231.123C290.046 232.685 288.524 234.556 287.539 235.585L280.982 242.461C280.291 243.185 279.624 245.303 279.624 246.379L279.597 267.779C285.192 271.082 291.518 272.013 297.839 270.538C307.493 267.955 315.258 260.969 318.287 251.416V220.197C318.582 217.308 319.865 214.78 321.964 212.913L332.551 203.505C333.285 202.851 334.015 201.673 334.015 200.636L334.082 164.326C334.089 160.815 336.24 157.152 339.061 155.371L353.549 146.217C352.367 141.779 353.972 137.314 357.61 134.872C361.247 132.429 365.882 132.7 369.209 135.204C372.702 137.834 374.044 142.288 372.643 146.526C371.497 149.994 368.605 152.424 365.528 153.074C361.663 153.888 358.21 152.874 355.511 149.986L342.538 157.993C340.38 159.324 338.284 161.433 338.28 164.341L338.253 200.601C338.253 203.466 336.903 205.235 334.878 207.035L324.099 216.62C322.733 217.833 322.357 220.349 322.353 222.134L322.27 251.412C330.825 252.085 338.971 250.069 346.446 245.929C361.569 237.55 371.728 222.623 373.506 205.344C374.153 199.067 373.192 193.032 370.881 187.279C370.324 185.898 370.673 184.59 372.101 184.07C373.125 183.698 374.456 184.43 374.887 185.616C376.367 189.694 377.351 193.623 377.783 198.1C386.173 196.699 393.483 192.789 399.801 187.318C414.524 174.571 421.206 152.655 420.017 133.521C419.071 118.344 412.554 106.333 398.804 99.5863C397.619 99.0032 397.332 97.6803 397.662 96.4945C400.13 87.591 399.467 78.6914 396.222 70.0892C392.533 60.3208 385.353 52.7323 376.068 47.9929C363.712 41.6841 349.538 42.3181 337.719 49.6053C327.215 56.0823 319.916 66.246 316.698 78.2218C316.231 79.9555 315.474 80.9065 313.575 80.8869C300.614 80.7774 287.818 88.5107 280.162 98.8779C270.889 111.433 267.703 125.62 268.005 141.153C268.021 141.936 267.303 143.317 266.561 143.529C250.371 148.197 237.555 161.015 229.844 175.761C218.924 196.644 215.137 221.805 222.687 244.391C224.833 250.805 227.949 256.601 232.607 261.458C243.716 273.05 261.24 274.933 275.465 267.782L275.437 247.181C275.433 243.311 276.995 240.54 279.565 237.792L285.993 230.932L285.981 200.386L277.992 193.478C274.531 196.304 270.03 196.574 266.353 194.445C262.677 192.316 261.028 188.351 261.739 184.089C262.335 180.508 264.744 177.608 267.738 176.446C271.313 175.057 275.014 175.624 278.11 178.105L306.131 159.336L306.166 125.596C306.17 120.818 309.27 117.871 312.919 115.464L348.432 92.0682C346.937 87.5401 348.381 82.8046 351.904 80.2882C355.428 77.7717 360.262 77.7247 363.927 80.4682C368.636 83.9983 369.091 90.8628 365.266 95.1208C361.51 99.3045 355.106 99.7976 350.696 95.6492L313.857 119.902C311.687 121.33 310.247 123.346 310.247 126.066L310.231 159.551C310.231 161.202 309.341 162.22 308.069 163.077L280.688 181.467C281.786 184.414 281.881 187.173 280.554 190.167L289.042 197.392C289.854 198.085 290.097 199.885 290.097 201.196L290.094 201.219ZM363.669 88.495C363.669 85.2428 361.028 82.605 357.767 82.605C354.506 82.605 351.865 85.2428 351.865 88.495C351.865 91.7473 354.506 94.3851 357.767 94.3851C361.028 94.3851 363.669 91.7473 363.669 88.495ZM369.084 143.329C369.084 140.065 366.431 137.419 363.158 137.419C359.886 137.419 357.233 140.065 357.233 143.329C357.233 146.593 359.886 149.239 363.158 149.239C366.431 149.239 369.084 146.593 369.084 143.329ZM277.423 185.807C277.423 182.563 274.786 179.933 271.533 179.933C268.28 179.933 265.643 182.563 265.643 185.807C265.643 189.052 268.28 191.682 271.533 191.682C274.786 191.682 277.423 189.052 277.423 185.807ZM372.341 224.666C363.154 243.729 342.863 257.47 321.27 255.603C313.81 272.346 293.982 281.061 277.47 271.383C266.502 277.069 253.6 277.93 242.111 273.121C234.129 269.778 227.965 263.814 223.385 256.445C208.408 259.172 195.195 254.848 185.715 242.99C181.822 237.867 179.248 232.164 177.718 226.063L169.003 222.208L134.982 242.892C131.293 245.134 128.425 248.183 128.001 252.762C127.691 256.092 129.139 260.347 132.329 262.323L163.254 281.472L258.47 340.404C265.431 344.713 275.359 344.337 282.073 340.071L333.568 307.345L404.494 262.546C407.739 260.495 409.281 256.582 409.195 253.247C409.112 250.081 407.507 246.285 404.458 244.41L372.341 224.67V224.666ZM409.269 263.974L405.691 266.831L307.716 328.808L284.176 343.699C275.889 348.939 265.329 348.544 256.579 344.298L200.976 309.862L132.596 267.548L127.813 263.892L127.891 285.464C127.907 290.258 131.062 293.718 134.931 296.102L227.612 353.225L259.467 372.738C266.71 375.756 275.343 375.951 282.1 371.693L404.274 294.704C406.84 293.088 409.069 289.542 409.093 286.658L409.273 263.978L409.269 263.974Z" fill="var(--fill-0, black)"/>
<path id="Vector_2" d="M290.093 201.219C290.093 199.904 289.85 198.108 289.038 197.415L280.55 190.191C281.877 187.197 281.782 184.438 280.684 181.491L308.065 163.101C309.341 162.244 310.228 161.23 310.228 159.574L310.243 126.089C310.243 123.365 311.679 121.354 313.853 119.925L350.692 95.6726C355.102 99.8211 361.506 99.328 365.262 95.1443C369.088 90.8824 368.632 84.0178 363.924 80.4917C360.259 77.7443 355.475 77.756 351.9 80.3116C348.326 82.8672 346.929 87.5636 348.428 92.0917L312.915 115.487C309.266 117.894 306.166 120.841 306.162 125.62L306.127 159.359L278.106 178.129C275.006 175.648 271.305 175.08 267.735 176.47C264.741 177.632 262.327 180.536 261.735 184.113C261.024 188.375 262.845 192.437 266.349 194.468C270.026 196.601 274.527 196.331 277.988 193.502L285.977 200.409L285.989 230.955L279.561 237.816C276.991 240.559 275.426 243.33 275.433 247.205L275.461 267.806C261.236 274.956 243.712 273.07 232.603 261.481C227.945 256.621 224.826 250.829 222.683 244.414C215.133 221.829 218.92 196.668 229.84 175.785C237.551 161.038 250.367 148.217 266.557 143.552C267.299 143.337 268.017 141.959 268.001 141.176C267.699 125.643 270.886 111.456 280.158 98.9014C287.814 88.5342 300.61 80.8008 313.571 80.9104C315.47 80.9261 316.227 79.9751 316.694 78.2452C319.916 66.2656 327.215 56.1019 337.715 49.6288C349.538 42.3416 363.712 41.7037 376.064 48.0163C385.349 52.7558 392.529 60.3443 396.218 70.1127C399.463 78.711 400.126 87.6145 397.658 96.518C397.329 97.7077 397.615 99.0266 398.8 99.6098C412.55 106.357 419.071 118.368 420.013 133.545C421.206 152.683 414.52 174.595 399.797 187.342C393.475 192.813 386.169 196.723 377.779 198.124C377.351 193.646 376.367 189.717 374.883 185.639C374.452 184.453 373.121 183.718 372.097 184.093C370.669 184.614 370.324 185.921 370.877 187.302C373.188 193.056 374.149 199.09 373.502 205.368C371.724 222.647 361.565 237.573 346.442 245.952C338.963 250.097 330.817 252.112 322.266 251.435L322.349 222.157C322.353 220.373 322.729 217.856 324.095 216.643L334.874 207.059C336.899 205.258 338.249 203.489 338.249 200.625L338.276 164.365C338.276 161.457 340.376 159.347 342.534 158.017L355.507 150.009C358.206 152.898 361.659 153.911 365.525 153.097C368.597 152.452 371.489 150.017 372.639 146.55C374.04 142.311 372.698 137.858 369.205 135.228C365.713 132.598 361.157 132.512 357.606 134.895C354.055 137.278 352.363 141.803 353.545 146.241L339.057 155.395C336.236 157.175 334.085 160.839 334.078 164.349L334.011 200.66C334.011 201.701 333.281 202.879 332.547 203.528L321.96 212.937C319.861 214.804 318.578 217.332 318.283 220.22V251.439C315.258 260.992 307.492 267.978 297.839 270.561C291.518 272.037 285.196 271.101 279.597 267.802L279.624 246.402C279.624 245.326 280.291 243.209 280.982 242.485L287.539 235.608C288.52 234.579 290.042 232.708 290.046 231.147L290.093 201.243V201.219Z" fill="var(--fill-0, #EAF1FF)"/>
<path id="Vector_3" d="M279.852 53.5072C283.38 56.2741 287.59 56.8885 291.471 54.8926C295.053 53.0532 297.318 49.0339 296.717 44.6115C295.885 38.4593 289.878 34.7648 284.011 36.4124C278.388 37.9935 275.261 44.3219 277.576 49.9732L253.53 66.0543C250.708 67.9406 248.319 70.7976 248.268 74.4177L248.071 88.1037C247.993 93.708 243.433 99.1166 237.896 100.334L224.484 102.306C216.11 103.539 211.28 111.088 211.315 119.323L211.417 144.429L194.536 155.418C189.2 158.893 185.715 165.371 185.672 171.691L185.582 185.447C179.056 192.578 175.795 201.893 176.031 211.559L176.623 221.073C165.86 216.533 157.458 208.827 151.906 198.926C140.644 178.849 141.252 154.295 153.656 134.875C158.153 127.835 164.482 122.328 172.012 118.771C173.029 123.369 174.265 129.4 177.271 128.175C178.012 127.874 178.86 126.457 178.479 125.596C175.634 119.158 174.94 112.493 176.372 105.535C180.123 87.3288 193.167 70.5197 212.053 67.655C212.838 67.5375 213.897 67.2949 214.274 66.8918C215.412 65.6786 213.803 51.9691 225.85 38.8076C235.413 28.3621 249.515 24.1197 263.469 26.6479C264.65 26.8632 266.381 27.0784 267.016 25.9552C282.685 -1.73765 321.203 -1.75331 344.602 17.5996C351.567 23.3605 356.107 31.0194 359.191 39.5355C336.562 39.2537 318.68 55.4914 312.66 76.7972C293.735 77.486 278.788 89.4382 270.693 106.279C265.643 116.775 263.473 128.203 263.728 140.092C245.505 145.975 232.521 160.083 224.261 177.19C218.426 189.522 215.227 202.57 214.47 216.232C214.313 228.587 215.832 240.908 221.396 252.468C206.767 255.239 192.61 248.179 185.727 235.104C181.979 227.981 180.516 220.478 180.343 212.346C180.159 203.579 182.38 195.228 188.356 188.633C189.101 187.807 189.753 186.586 189.757 185.424C189.772 180.681 189.576 176.411 189.871 171.624C190.165 166.838 192.739 161.535 196.836 158.878L213.254 148.237C214.713 147.29 215.573 146.147 215.577 144.311L215.651 117.315C215.667 112.216 219.771 107.194 224.665 106.517L237.563 104.733C245.427 103.645 251.681 96.6471 252.172 88.6868C252.435 84.4523 252.258 80.5504 252.282 76.2649C252.294 74.0929 252.972 71.4668 254.938 70.1518L279.852 53.4954V53.5072Z" fill="var(--fill-0, #EAF1FF)"/>
<path id="Vector_4" d="M372.341 224.666L404.458 244.406C407.503 246.277 409.108 250.077 409.195 253.243C409.281 256.578 407.739 260.491 404.494 262.542L333.567 307.341L282.073 340.067C275.359 344.333 265.431 344.709 258.47 340.4L163.254 281.468L132.329 262.319C129.139 260.343 127.691 256.092 128.001 252.758C128.429 248.179 131.293 245.13 134.982 242.888L169.003 222.204L177.718 226.059C179.248 232.161 181.822 237.863 185.715 242.986C195.192 254.84 208.404 259.165 223.385 256.441C227.965 263.814 234.129 269.778 242.111 273.117C253.6 277.923 266.502 277.066 277.47 271.379C293.982 281.057 313.81 272.346 321.27 255.599C342.863 257.466 363.154 243.725 372.341 224.662V224.666ZM179.774 268.037L177.455 271.817L253.867 318.487L256.186 314.707L179.774 268.037Z" fill="var(--fill-0, #EAF1FF)"/>
<path id="Vector_5" d="M409.269 263.974L409.089 286.654C409.065 289.538 406.836 293.084 404.27 294.7L282.096 371.689C275.339 375.947 266.706 375.752 259.463 372.734L227.608 353.221L134.927 296.098C131.062 293.714 127.907 290.255 127.887 285.46L127.809 263.888L132.592 267.544L200.972 309.858L256.575 344.294C265.325 348.54 275.889 348.939 284.172 343.695L307.712 328.804L405.687 266.828L409.265 263.971L409.269 263.974Z" fill="var(--fill-0, #2F6BFF)"/>
<path id="Vector_6" d="M363.162 149.239C366.435 149.239 369.088 146.593 369.088 143.329C369.088 140.065 366.435 137.419 363.162 137.419C359.89 137.419 357.237 140.065 357.237 143.329C357.237 146.593 359.89 149.239 363.162 149.239Z" fill="var(--fill-0, #2F6BFF)"/>
<path id="Vector_7" d="M357.767 94.3851C361.026 94.3851 363.668 91.748 363.668 88.495C363.668 85.2421 361.026 82.605 357.767 82.605C354.507 82.605 351.865 85.2421 351.865 88.495C351.865 91.748 354.507 94.3851 357.767 94.3851Z" fill="var(--fill-0, #2F6BFF)"/>
<path id="Vector_8" d="M271.533 191.682C274.786 191.682 277.423 189.052 277.423 185.807C277.423 182.563 274.786 179.933 271.533 179.933C268.28 179.933 265.643 182.563 265.643 185.807C265.643 189.052 268.28 191.682 271.533 191.682Z" fill="var(--fill-0, #2F6BFF)"/>
<path id="Vector_9" d="M286.809 51.9535C290.047 51.9535 292.672 49.3339 292.672 46.1026C292.672 42.8712 290.047 40.2517 286.809 40.2517C283.571 40.2517 280.947 42.8712 280.947 46.1026C280.947 49.3339 283.571 51.9535 286.809 51.9535Z" fill="var(--fill-0, #2F6BFF)"/>
<path id="Vector_10" d="M179.767 268.023L177.447 271.802L253.861 318.467L256.18 314.689L179.767 268.023Z" fill="var(--fill-0, black)"/>
<g id="Group">
<path id="Vector_11" d="M63.5727 217.614C64.542 218.177 65.4484 218.486 66.449 218.099L73.5358 215.344L87.0539 209.098C87.772 208.491 88.2547 207.771 88.2586 206.828L88.3371 194.86C93.2225 191.517 97.6252 187.741 101.859 183.424L107.835 189.349C108.64 190.148 110.131 189.518 110.586 188.574C116.7 180.446 122.445 172.208 127.934 163.656C128.99 162.326 128.511 160.929 127.381 159.868L121.781 154.624C124.454 148.276 126.777 141.998 128.609 135.443L139.086 130.809C140.118 130.351 140.385 129.091 140.495 128.038C141.872 119.233 142.79 110.501 142.834 101.59C142.979 100.338 142.367 99.4884 141.362 98.8936L127.11 90.4793L135.484 78.21C136.076 77.3451 135.908 76.1906 135.378 75.3061L128.633 68.7782L121.742 62.3833L100.337 50.1845C99.4459 49.6757 98.0725 49.8362 97.5428 50.6972L94.8195 55.1352L74.2068 43.4061C73.0374 42.7408 72.0878 42.7799 70.9106 43.4217C63.0862 47.6993 55.4893 52.1844 47.9081 56.8964C47.0409 57.3621 46.1462 58.0783 46.1423 59.135L46.1266 75.0439C40.6762 80.1707 36.0341 85.7633 31.8629 92.0134L25.8121 88.5498C24.5642 87.6967 22.9711 88.135 22.2962 89.4852L15.3546 101.79C12.3606 107.1 9.94342 112.525 7.51838 118.109C7.13776 119.088 7.19269 120.454 8.17369 121.021L13.8556 124.297C12.1055 130.183 10.8224 136.046 10.2416 142.292L1.31062 148.945C0.663156 149.426 0.17658 149.927 0.023544 150.784C-0.168732 159.32 0.674928 167.683 2.3387 176.043C2.53098 177.01 2.73895 178.035 3.65324 178.559L17.297 186.375L14.0087 193.928C13.632 194.793 14.2363 195.83 14.9034 196.39L34.0525 207.755L47.1586 215.731C47.8493 216.154 48.4849 216.385 49.2972 216.166C49.8701 216.009 50.4509 215.469 50.7766 214.831L52.6012 211.258L63.5688 217.614H63.5727ZM69.4627 70.5197L49.0775 58.7045C56.8784 53.9103 64.593 49.3039 72.6136 44.9833L93.6698 56.9551L78.841 65.0915L69.4627 70.5197ZM97.0601 67.1775V57.4678L96.5932 56.2428L99.2026 52.0043L118.838 63.2052L110.59 75.2396L97.0601 67.1736V67.1775ZM67.4222 202.585C67.4143 201.752 66.814 201.298 66.0959 201.384C62.9449 201.482 59.9077 201.239 56.8117 200.675C56.125 200.578 55.5325 200.91 55.3245 201.56L48.7439 214.193L35.6299 206.198L42.5126 193.126C42.5793 192.68 42.5322 192.265 42.3792 191.842C40.2485 188.786 38.5847 185.588 37.176 182.156C36.866 181.569 36.14 181.291 35.5868 181.683L26.6047 188.015C24.835 179.964 23.9874 172.039 23.8422 163.832L33.4756 156.901C33.7974 156.671 34.025 156.346 34.2212 155.946C34.7784 149.094 36.3284 142.515 38.5572 136.014C38.7456 135.396 38.5729 134.746 37.9882 134.496L30.6582 131.341C34.9432 121.236 39.758 111.605 45.2163 102.212L51.9891 106.361C52.5659 106.713 53.2134 106.811 53.7274 106.306C56.4467 102.467 59.3427 98.9483 62.6074 95.5591C64.8755 93.2031 67.2495 91.1524 69.7883 89.1095C70.2945 88.7025 70.4947 88.2485 70.4947 87.5871V72.3944L79.3747 67.2479L95.0079 58.6379V75.2474C95.0118 75.8892 95.4866 76.3002 96.1341 76.3432C100.866 75.9871 105.556 76.488 110.096 77.8069C110.869 78.1161 111.595 77.7756 111.928 77.0281L120.647 64.2736L133.867 76.8442L124.822 90.0605C124.493 90.5419 124.54 91.1602 124.791 91.669C126.565 96.1305 127.973 100.58 128.743 105.335C128.805 105.715 129.072 106.189 129.315 106.333C129.531 106.459 130.136 106.451 130.387 106.349L140.734 102.04L140.342 111.022C140.079 117.053 139.149 122.865 138.258 128.852L127.126 133.78C126.796 133.924 126.549 134.723 126.471 135.126C124.669 141.599 122.413 147.826 119.729 153.958C119.262 155.023 119.584 155.52 120.326 156.217L126.494 162.032L123.535 166.505C118.85 173.593 114.051 180.465 108.867 187.365L102.73 181.189C102.216 180.673 101.431 180.794 100.957 181.373C96.4716 185.937 91.7157 190.03 86.3202 193.701L86.124 207.09C79.7278 210.311 73.3003 213.297 66.5314 215.786L67.4143 202.581L67.4222 202.585ZM68.3639 86.1273L48.2848 74.7112V60.6574L68.411 72.3357L68.3639 86.1312V86.1273ZM97.0444 74.1516L97.0994 69.4631L105.713 74.5429C102.636 74.2377 99.9914 74.0733 97.0444 74.1516ZM52.5895 104.224L44.3804 99.2536L33.715 93.074C37.7803 87.0157 42.289 81.611 47.4804 76.6876L67.6458 88.1272C65.4249 89.9 63.5178 91.6494 61.5676 93.618C58.2832 96.9015 55.4187 100.4 52.5895 104.224ZM9.32342 119.248C11.8505 113.487 14.2598 108.325 17.0459 103.128L24.3523 90.174L43.4544 101.093C37.898 110.576 33.0479 120.27 28.7747 130.426L9.32342 119.244V119.248ZM130.642 103.97C129.939 100.197 128.923 96.925 127.746 93.2697L139.534 100.205L130.642 103.97ZM32.2592 153.931L12.3253 142.288C13.0002 136.449 14.0636 130.891 15.7431 125.393L28.6374 132.746L36.3323 136.057C34.3585 141.893 32.9498 147.732 32.2592 153.931ZM22.7121 162.028L2.85667 150.444L11.4385 144.033L31.392 155.743L22.7121 162.028ZM24.4112 188.011L4.6107 176.673C2.92338 168.65 2.11111 160.592 2.07187 152.389L21.8057 163.876C21.8174 172.2 22.7827 180.062 24.4112 188.015V188.011ZM19.1177 187.416L23.7794 190.054C24.6898 190.723 25.7925 190.856 26.848 190.394L35.7594 184.172C37.0504 187.22 38.5494 189.952 40.378 192.692L33.8249 205.129L15.9981 194.582L19.1217 187.42L19.1177 187.416ZM53.6018 209.364L57.0157 202.832C59.7821 203.313 62.5015 203.552 65.2718 203.478L64.4046 215.641L53.6018 209.364Z" fill="var(--fill-0, black)"/>
<path id="Vector_12" d="M67.4222 202.585L66.5393 215.79C73.3042 213.305 79.7318 210.315 86.1318 207.094L86.328 193.705C91.7235 190.034 96.4794 185.941 100.965 181.377C101.439 180.798 102.224 180.677 102.738 181.193L108.875 187.369C114.063 180.469 118.858 173.597 123.543 166.509L126.502 162.036L120.333 156.22C119.592 155.52 119.274 155.027 119.737 153.962C122.421 147.83 124.677 141.599 126.478 135.13C126.557 134.727 126.804 133.932 127.134 133.784L138.266 128.856C139.157 122.868 140.083 117.053 140.35 111.026L140.742 102.044L130.395 106.353C130.143 106.459 129.539 106.466 129.323 106.337C129.08 106.192 128.813 105.719 128.75 105.339C127.981 100.584 126.573 96.1384 124.799 91.6729C124.548 91.1681 124.505 90.5458 124.83 90.0644L133.875 76.8481L120.655 64.2775L111.936 77.032C111.602 77.7834 110.877 78.1239 110.104 77.8108C105.563 76.4919 100.874 75.9871 96.1419 76.3471C95.4945 76.3041 95.0197 75.8931 95.0197 75.2513V58.6419L79.3825 67.2518L70.5064 72.3983V87.591C70.5064 88.2524 70.3024 88.7064 69.7962 89.1134C67.2613 91.1563 64.8873 93.207 62.6153 95.5631C59.3505 98.9523 56.4546 102.475 53.7353 106.31C53.2173 106.815 52.5738 106.721 51.9969 106.365L45.2241 102.216C39.7658 111.609 34.9511 121.236 30.6661 131.345L37.9961 134.5C38.5768 134.75 38.7534 135.4 38.5651 136.018C36.3362 142.519 34.7863 149.098 34.2291 155.95C34.0329 156.35 33.8053 156.674 33.4835 156.905L23.8501 163.836C23.9992 172.039 24.8428 179.964 26.6126 188.019L35.5946 181.686C36.1479 181.295 36.8738 181.573 37.1838 182.16C38.5886 185.592 40.2563 188.79 42.387 191.846C42.5362 192.269 42.5872 192.684 42.5205 193.13L35.6378 206.201L48.7518 214.197L55.3323 201.564C55.5403 200.91 56.1328 200.581 56.8195 200.679C59.9156 201.239 62.9527 201.485 66.1037 201.388C66.8179 201.305 67.4222 201.756 67.43 202.589L67.4222 202.585ZM55.3441 166.001C51.9145 157.723 52.4757 147.978 54.8732 139.376C57.4238 130.238 61.909 121.843 68.1206 114.693L71.9191 110.814C77.1969 105.993 83.9108 101.946 91.2016 101.715C96.5382 101.547 101.373 103.782 104.539 108.079C109.593 114.939 109.923 125.275 108.346 133.561C106.128 145.192 100.666 156.009 92.6731 164.693L89.734 167.633C84.2836 172.673 76.7848 177.174 69.2037 176.689C62.6035 176.266 57.8044 171.938 55.348 166.005L55.3441 166.001Z" fill="var(--fill-0, #EAF1FF)"/>
<path id="Vector_13" d="M9.32342 119.248L28.7747 130.43C33.0479 120.274 37.898 110.58 43.4544 101.097L24.3523 90.1779L17.0459 103.132C14.2598 108.325 11.8505 113.491 9.32342 119.252V119.248Z" fill="var(--fill-0, #EAF1FF)"/>
<path id="Vector_14" d="M69.4627 70.5197L78.841 65.0915L93.6698 56.9551L72.6136 44.9833C64.593 49.3039 56.8784 53.9103 49.0775 58.7045L69.4627 70.5197Z" fill="var(--fill-0, #EAF1FF)"/>
<path id="Vector_15" d="M52.5895 104.224C55.4187 100.4 58.2871 96.9015 61.5676 93.618C63.5139 91.6494 65.4249 89.9 67.6458 88.1272L47.4804 76.6876C42.2889 81.611 37.7803 87.0157 33.715 93.074L44.3804 99.2536L52.5895 104.224Z" fill="var(--fill-0, black)"/>
<path id="Vector_16" d="M24.4112 188.011C22.7867 180.058 21.8174 172.196 21.8057 163.872L2.07187 152.385C2.11111 160.592 2.92338 168.646 4.6107 176.669L24.4112 188.007V188.011Z" fill="var(--fill-0, #EAF1FF)"/>
<path id="Vector_17" d="M32.2592 153.931C32.9538 147.732 34.3585 141.893 36.3323 136.057L28.6374 132.746L15.7431 125.393C14.0597 130.891 12.9963 136.449 12.3253 142.288L32.2592 153.931Z" fill="var(--fill-0, black)"/>
<path id="Vector_18" d="M97.0601 67.1775L110.59 75.2435L118.838 63.2052L99.2026 52.0043L96.5932 56.2428L97.0562 57.4678L97.0601 67.1775Z" fill="var(--fill-0, #2F6BFF)"/>
<path id="Vector_19" d="M68.3639 86.1273L68.4071 72.3357L48.277 60.6574L48.2809 74.7112L68.3639 86.1273Z" fill="var(--fill-0, #2F6BFF)"/>
<path id="Vector_20" d="M19.1177 187.416L15.9942 194.578L33.821 205.125L40.374 192.688C38.5455 189.948 37.0504 187.22 35.7555 184.168L26.8441 190.39C25.7885 190.852 24.6859 190.719 23.7755 190.05L19.1138 187.412L19.1177 187.416Z" fill="var(--fill-0, black)"/>
<path id="Vector_21" d="M22.7121 162.028L31.392 155.747L11.4385 144.037L2.85667 150.444L22.7121 162.028Z" fill="var(--fill-0, #2F6BFF)"/>
<path id="Vector_22" d="M53.6018 209.364L64.4046 215.641L65.2718 203.478C62.5054 203.552 59.7821 203.313 57.0157 202.832L53.6018 209.364Z" fill="var(--fill-0, black)"/>
<path id="Vector_23" d="M130.642 103.97L139.534 100.205L127.746 93.2697C128.923 96.925 129.939 100.197 130.642 103.97Z" fill="var(--fill-0, black)"/>
<path id="Vector_24" d="M97.0444 74.1516C99.9914 74.0733 102.636 74.2377 105.713 74.5429L97.0994 69.4631L97.0444 74.1516Z" fill="var(--fill-0, black)"/>
<path id="Vector_25" d="M55.3441 166.001C57.8044 171.934 62.5996 176.262 69.1997 176.685C76.7809 177.17 84.2836 172.673 89.7301 167.629L92.6692 164.69C100.662 156.005 106.125 145.188 108.342 133.557C109.919 125.271 109.589 114.936 104.535 108.075C101.369 103.778 96.5343 101.543 91.1977 101.711C83.9069 101.942 77.1929 105.989 71.9151 110.811L68.1167 114.689C61.905 121.839 57.416 130.234 54.8693 139.372C52.4717 147.974 51.9106 157.719 55.3402 165.997L55.3441 166.001ZM57.6593 165.934C62.9135 163.535 67.4614 160.095 71.4286 155.872C80.1595 146.581 86.0847 134.954 88.6903 122.485C89.8086 116.403 90.1304 110.126 88.6667 104.126C95.4199 102.87 101.345 105.758 104.347 111.895C107.09 117.503 107.6 124.575 106.65 130.821C104.622 144.119 98.2687 156.549 88.5097 165.817C85.5981 168.58 82.4079 170.822 78.8214 172.505C70.1611 176.571 61.9364 174.853 57.6632 165.934H57.6593ZM56.4624 141.677C58.7541 132.367 63.1842 123.796 69.3959 116.501C74.038 111.245 79.8377 106.506 86.5909 104.604C88.8158 113.621 86.842 123.784 83.6087 132.285C80.2772 141.047 75.278 149.012 68.6268 155.629C65.1776 159.066 61.2968 161.891 56.8352 163.93C54.3278 157.011 54.7359 148.679 56.4585 141.677H56.4624Z" fill="var(--fill-0, black)"/>
<path id="Vector_26" d="M57.6593 165.934C61.9325 174.853 70.1572 176.571 78.8175 172.505C82.404 170.822 85.5942 168.58 88.5058 165.817C98.2648 156.549 104.618 144.119 106.646 130.821C107.6 124.575 107.09 117.503 104.343 111.895C101.341 105.758 95.416 102.87 88.6628 104.126C90.1225 110.126 89.8007 116.407 88.6863 122.485C86.0808 134.95 80.1556 146.581 71.4247 155.872C67.4575 160.095 62.9096 163.535 57.6553 165.934H57.6593Z" fill="var(--fill-0, black)"/>
</g>
</g>
<defs>
<clipPath id="clip0_0_78">
<rect width="424" height="379" fill="white"/>
</clipPath>
</defs>
</svg>
