<svg preserveAspectRatio="xMidYMid meet" width="387" height="404" overflow="visible" style="display: block;" viewBox="0 0 387 404" fill="none" xmlns="http://www.w3.org/2000/svg">
<g id="Layer_1" clip-path="url(#clip0_0_4)">
<path id="Vector" d="M115.142 399.508L4.07312 332.192C1.5054 330.638 0 327.123 0 324.357V299.228C0 295.345 2.76524 292.498 5.85611 290.554L49.3045 263.177C50.6605 260.373 52.1018 258.285 54.3279 255.753C45.7439 244.596 42.7117 230.971 43.1281 216.978C43.3203 210.596 43.0801 204.614 44.5161 198.536C46.5446 189.943 51.4132 183.657 58.7373 178.946L91.1515 158.127C95.7477 155.179 100.846 153.988 106.115 153.336L106.147 142.655C102.533 141.875 100.173 138.948 100.333 135.503C100.504 131.77 103.376 128.918 107.076 128.79C110.775 128.662 113.802 131.305 114.181 135.033C114.56 138.761 112.254 141.795 108.309 142.671L108.325 153.342C116.54 152.893 123.603 155.281 130.441 159.185L160.896 176.575L201.905 151.408C205.375 149.277 208.973 148.06 212.939 149.224C212.454 147.152 212.037 145.731 212.037 143.702L212.027 12.5029C212.027 10.0514 212.309 6.927 214.349 5.71996L222.725 0.742262C225.597 -0.966819 228.634 0.576695 231.357 2.16294L291.338 37.2151L377.989 89.2192C383.092 92.2796 386.915 96.5362 386.92 102.892V117.163L386.947 194.493L387.021 230.256C387.032 235.794 385.201 239.255 380.199 241.797C377.306 243.266 374.375 245.857 370.382 243.779L370.393 256.042C370.393 257.622 369.165 260.095 367.542 261.094L279.145 315.502C273.113 319.213 266.584 316.805 261.155 313.573L193.892 273.517L194.133 284.53L227.897 304.612C229.712 305.69 231.768 308.302 231.768 310.385L231.72 340.337C231.714 343.814 228.645 345.859 226.013 347.525L143.776 399.642C134.418 405.57 124.831 405.367 115.158 399.503L115.142 399.508ZM384.624 107.496C385.383 102.256 384.374 95.7725 379.393 92.7389L350.507 75.1407L297.503 43.3091L229.152 3.32725C226.056 1.51669 223.072 1.99203 220.52 4.68383L223.84 5.97632L293.297 46.4442L373.371 94.4106C378.736 97.6204 379.655 104.553 379.617 110.22L384.624 107.496ZM377.53 237.915L377.546 108.121C377.546 102.956 375.72 98.1545 371.209 95.4681L271.901 36.3606L221.224 6.9537C219.847 6.15257 217.167 6.28609 216.094 6.99109C215.176 7.59461 214.146 9.31437 214.146 10.97V144.764C214.146 146.719 214.856 148.653 215.929 150.132L347.342 227.778L371.46 242.209C372.549 242.86 375.016 242.545 375.87 241.91C376.724 241.274 377.53 239.885 377.53 237.92V237.915ZM112.12 135.818C112.12 133.137 109.948 130.969 107.273 130.969C104.599 130.969 102.426 133.143 102.426 135.818C102.426 138.494 104.599 140.668 107.273 140.668C109.948 140.668 112.12 138.494 112.12 135.818ZM245.38 244.078C246.437 244.692 247.297 245.889 247.302 246.615C247.307 247.341 246.576 248.906 245.925 249.312L223.338 263.572C220.909 265.105 218.107 263.973 215.902 262.696L188.72 246.941C188.495 250.535 187.609 253.868 186.333 257.537C187.086 258.637 188.255 259.577 189.552 260.341L264.812 304.478C268.591 306.694 274.175 306.55 277.88 304.238L366.485 248.831C367.771 248.03 368.401 245.798 368.231 244.665C368.012 243.207 367.158 241.92 365.572 240.986L216.431 152.834C212.678 150.618 208.583 149.71 204.665 152.113L162.546 177.979C166.608 181.184 170.046 184.677 173.164 188.955L182.015 183.454L190.332 188.421C187.716 190.691 185.068 192.341 182.041 194.05L174.082 190.034C179.698 199.578 183.477 209.266 183.573 220.167L183.675 231.89L200.368 221.337C202.231 220.162 204.953 220.546 206.806 221.625L245.364 244.067L245.38 244.078ZM121.713 290.982C130.676 292.044 138.145 288.909 144.929 284.492L166.849 270.227C165.076 269.303 163.945 269.661 162.295 269.858C156.316 270.579 151.351 266.018 149.969 260.288C148.239 253.125 149.857 245.915 153.231 239.394C157.72 230.715 166.304 223.174 174.674 226.608C177.397 227.724 179.207 230.395 181.475 233.754L181.502 219.622C181.529 204.198 171.397 185.003 157.4 177.029L127.169 159.804C121.308 156.466 114.848 155.35 108.287 155.2L108.367 165.759C111.165 165.695 114.629 168.051 113.337 170.817C111.282 175.223 104.017 175.213 101.294 171.303C100.451 170.096 101.155 167.885 102.138 167.217C103.12 166.55 104.225 166.144 106.088 165.637L106.109 155.345C101.668 156.119 96.9969 156.845 93.0252 159.404L62.741 178.941C69.7822 178.577 75.5903 179.907 81.313 183.256L116.37 203.738C130.025 212.326 137.888 227.612 138.817 243.619L138.892 263.978C138.913 269.789 137.184 275.424 134.472 280.391C131.578 285.689 126.918 289.048 121.719 290.982H121.713ZM133.212 278.361C135.636 273.431 136.89 268.267 136.863 262.905L136.762 243.677C136.068 231.431 131.119 219.985 122.621 211.386C118.793 207.514 114.512 204.817 109.852 202.136L79.0656 184.442C68.768 178.524 56.4151 179.886 50.1854 190.258C47.1158 195.364 45.4556 201.287 45.4236 207.343L45.3382 222.864C45.2795 233.321 48.4824 243.336 54.1944 251.95C58.5772 258.557 64.0916 263.428 70.9674 267.316L105.949 287.099C116.129 292.856 128.066 288.845 133.217 278.361H133.212ZM223.072 261.42L245.914 246.834L205.647 223.323C204.169 222.458 202.145 222.496 200.784 223.371L183.008 234.881C186.846 237.722 188.068 240.692 188.655 244.532L217.365 261.212C219.239 262.301 220.974 262.755 223.072 261.414V261.42ZM180.6 235.538C179.052 234.512 177.029 233.017 175.737 233.022C165.663 233.054 157.837 247.421 158.569 259.091C158.82 263.054 161.067 265.821 164.916 267.038C160.603 255.604 168.098 237.69 180.6 235.538ZM186.066 242.374C185.634 240.585 184.177 238.721 182.906 238.176C174.642 234.614 162.322 252.65 166.464 265.223C166.982 266.793 168.391 268.459 169.555 268.881C177.392 271.744 189.189 255.262 186.066 242.369V242.374ZM191.88 276.78C191.869 270.371 189.227 264.544 185.399 259.721C181.374 266.59 176.265 272.256 168.984 271.151L142.453 288.391C137.322 291.724 131.066 292.984 124.98 293.337C117.437 293.769 110.433 291.564 103.675 288.487L67.759 267.834C63.0186 265.11 59.2711 261.591 55.5183 257.43C50.7619 262.995 47.986 269.987 47.986 277.336V297.636C47.986 308.243 53.7994 317.996 62.9706 323.31L102.533 346.244C115.948 354.02 133.484 353.758 146.52 345.373L178.411 324.853C186.931 319.368 191.928 309.125 191.912 299.153L191.88 276.775V276.78ZM194.02 299.885C193.844 309.931 189.221 320.095 180.685 325.681L150.695 345.309C136.127 354.842 117.298 357.208 102.015 348.332L61.1716 324.608C52.1018 319.342 46.1496 309.659 46.0535 299.276L45.8507 277.314C45.8186 273.576 46.9183 270.003 47.8258 266.515L5.42905 293.294C3.1923 294.71 1.9378 297.695 2.10329 299.97C2.25276 302.053 3.59268 304.547 5.80807 305.888L115.12 372.013C121.756 376.03 130.804 376.996 137.643 372.713L226.803 316.885C228.629 315.742 229.6 313.435 229.627 311.747C229.648 310.246 228.698 307.448 227.054 306.47L194.239 286.906L194.015 299.879L194.02 299.885ZM229.579 335.834L229.68 317.259L225.319 320.153L138.219 374.913C131.119 378.214 123.464 378.294 116.295 375.143L6.30987 308.596L2.08728 305.493L1.98051 322.717C1.95916 325.986 2.87734 328.555 5.57852 330.718L116.535 397.783C124.131 400.913 132.102 400.854 138.967 396.496L224.443 342.217C226.744 340.759 229.558 339.071 229.579 335.834Z" fill="var(--fill-0, #0B1220)"/>
<path id="Vector_2" d="M245.38 244.078L206.822 221.636C204.964 220.557 202.241 220.172 200.384 221.347L183.691 231.901L183.589 220.178C183.493 209.277 179.719 199.589 174.098 190.044L182.057 194.061C185.079 192.352 187.732 190.701 190.348 188.431L182.031 183.464L173.18 188.966C170.062 184.682 166.624 181.189 162.562 177.99L204.681 152.124C208.599 149.721 212.689 150.623 216.447 152.845L365.588 240.996C367.174 241.931 368.028 243.218 368.247 244.676C368.417 245.809 367.787 248.041 366.501 248.842L277.896 304.248C274.191 306.561 268.607 306.705 264.828 304.489L189.568 260.352C188.271 259.593 187.107 258.648 186.349 257.548C187.625 253.879 188.517 250.546 188.736 246.951L215.918 262.707C218.118 263.984 220.926 265.116 223.354 263.583L245.941 249.323C246.587 248.912 247.329 247.347 247.318 246.626C247.307 245.905 246.453 244.703 245.396 244.089L245.38 244.078ZM212.438 176.26L220.135 170.972L211.461 165.519L203.218 170.684C206.32 173.162 209.091 174.647 212.432 176.254L212.438 176.26ZM223.958 185.222L232.376 179.624L223.733 174.145L214.904 179.897L223.958 185.222ZM204.147 180.052L195.803 174.903L187.075 180.479L195.841 185.558L204.147 180.046V180.052ZM209.683 193.65L218.134 188.122L209.171 182.642L200.805 188.293L209.678 193.65H209.683ZM246.411 187.828L237.533 182.407L228.917 188.047L238.077 193.473L246.411 187.828ZM252.165 201.853L260.621 196.197L251.53 190.733L243.111 196.443L252.16 201.853H252.165ZM195.964 202.264L204.254 196.715L195.195 191.193L186.889 196.897L195.964 202.264ZM232.467 196.389L223.21 190.867L214.824 196.475L223.968 202.029L232.472 196.389H232.467ZM238.232 210.393L246.667 204.748L237.501 199.29L229.05 204.919L238.232 210.393ZM266.397 210.244L274.757 204.545L265.516 199.071L257.093 204.652L266.392 210.238L266.397 210.244ZM275.099 238.262L261.267 230.058L209.373 199.551L200.976 205.084L267.411 243.672L275.099 238.262ZM252.421 218.704L260.685 213.112L251.621 207.557L242.994 213.24L252.421 218.704ZM288.989 212.871L279.743 207.413L271.362 212.93L280.33 218.485L288.989 212.871ZM294.685 226.875L303.013 221.283L293.959 215.761L285.647 221.459L294.685 226.87V226.875ZM274.896 221.417L265.869 215.948L257.21 221.438L266.44 227.019L274.896 221.411V221.417ZM280.768 235.372L289.208 229.834L279.962 224.328L271.527 229.882L280.768 235.372ZM308.895 235.26L317.244 229.684L308.089 224.226L299.575 229.775L308.895 235.26ZM303.344 238.219L294.22 232.606L285.738 238.235L294.808 243.795L303.344 238.214V238.219ZM331.466 238.022L322.156 232.558L313.855 238.054L322.988 243.613L331.471 238.022H331.466ZM281.067 252.351L289.581 246.855L280.149 241.397L271.97 246.861L281.067 252.346V252.351ZM317.736 246.679L308.313 241.183L300.018 246.647L309.12 252.26L317.736 246.684V246.679ZM303.867 255.294L294.658 249.675L286.095 255.358L295.32 260.891L303.867 255.289V255.294Z" fill="var(--fill-0, #EAF1FF)"/>
<path id="Vector_3" d="M377.53 237.915C377.53 239.886 376.745 241.253 375.87 241.904C374.994 242.556 372.555 242.855 371.46 242.203L347.342 227.772L215.929 150.127C214.851 148.647 214.141 146.714 214.141 144.759V10.9702C214.141 9.31449 215.171 7.59473 216.089 6.99121C217.162 6.28621 219.842 6.15269 221.219 6.95382L271.896 36.3607L371.204 95.4682C375.715 98.1547 377.541 102.956 377.541 108.121L377.525 237.915H377.53ZM367.142 218.031L367.131 118.851C367.131 113.552 364.504 109.707 360.132 107.122L314.202 79.9796L232.718 32.355C230.972 31.3349 228.463 31.586 226.958 32.3817C225.735 33.028 224.15 35.0522 224.15 37.0764L224.182 136.833C224.182 140.316 226.21 144.615 229.243 146.404L331.877 206.948L359.278 222.875C360.72 223.713 363.298 223.564 364.665 222.731C365.764 222.063 367.142 220.258 367.142 218.036V218.031Z" fill="var(--fill-0, #EAF1FF)"/>
<path id="Vector_4" d="M191.88 276.78L191.912 299.159C191.928 309.13 186.931 319.374 178.411 324.859L146.52 345.379C133.49 353.764 115.953 354.025 102.533 346.249L62.9706 323.315C53.7994 318.001 47.986 308.249 47.986 297.642V277.341C47.986 269.992 50.7565 263.001 55.5183 257.436C59.2711 261.596 63.0186 265.11 67.759 267.84L103.675 288.493C110.433 291.564 117.437 293.775 124.98 293.342C131.066 292.99 137.322 291.729 142.453 288.397L168.984 271.156C176.265 272.262 181.369 266.595 185.399 259.727C189.221 264.55 191.869 270.377 191.88 276.786V276.78ZM106.27 327.909V316.869C106.27 312.564 104.113 309.627 100.558 307.57L67.4708 288.423C66.4031 287.804 63.9368 288.172 63.0346 288.696C62.1325 289.219 60.926 291.003 60.9313 292.231L60.9954 305.557C61.0114 309.05 63.2695 311.646 66.0935 313.269L99.2817 332.341C100.696 333.153 102.864 333.02 104.204 332.224C105.255 331.594 106.264 329.655 106.264 327.909H106.27Z" fill="var(--fill-0, #EAF1FF)"/>
<path id="Vector_5" d="M121.713 290.982C126.907 289.054 131.573 285.689 134.466 280.391C137.178 275.424 138.908 269.789 138.887 263.978L138.812 243.619C137.883 227.618 130.02 212.332 116.364 203.738L81.3076 183.256C75.585 179.913 69.7769 178.578 62.7357 178.941L93.0199 159.404C96.9862 156.846 101.657 156.119 106.104 155.345L106.083 165.637C104.22 166.149 103.147 166.529 102.132 167.218C101.118 167.907 100.445 170.096 101.289 171.303C104.011 175.213 111.272 175.224 113.332 170.817C114.624 168.051 111.159 165.695 108.362 165.759L108.282 155.201C114.843 155.35 121.302 156.466 127.164 159.804L157.394 177.029C171.391 185.003 181.524 204.198 181.497 219.622L181.47 233.754C179.201 230.389 177.397 227.724 174.669 226.608C166.299 223.174 157.72 230.715 153.225 239.394C149.851 245.915 148.234 253.126 149.964 260.288C151.346 266.024 156.311 270.585 162.29 269.859C163.939 269.661 165.071 269.303 166.843 270.227L144.924 284.493C138.139 288.909 130.671 292.039 121.708 290.982H121.713Z" fill="var(--fill-0, #EAF1FF)"/>
<path id="Vector_6" d="M194.02 299.885L194.245 286.912L227.059 306.476C228.698 307.453 229.654 310.257 229.632 311.752C229.606 313.44 228.639 315.747 226.808 316.89L137.648 372.718C130.81 377.002 121.761 376.035 115.126 372.019L5.81341 305.888C3.59801 304.548 2.2581 302.053 2.10863 299.97C1.94314 297.695 3.1923 294.704 5.43439 293.294L47.8312 266.515C46.9236 270.008 45.824 273.576 45.856 277.314L46.0588 299.276C46.1549 309.659 52.1071 319.342 61.1769 324.608L102.02 348.332C117.304 357.209 136.127 354.843 150.7 345.309L180.691 325.681C189.227 320.095 193.85 309.936 194.026 299.885H194.02Z" fill="var(--fill-0, #EAF1FF)"/>
<path id="Vector_7" d="M229.579 335.834C229.563 339.066 226.744 340.759 224.443 342.217L138.967 396.496C132.102 400.854 124.131 400.913 116.535 397.783L5.58386 330.718C2.88268 328.555 1.96449 325.986 1.98585 322.717L2.09261 305.493L6.31521 308.596L116.3 375.138C123.47 378.289 131.125 378.209 138.225 374.908L225.324 320.148L229.686 317.253L229.584 335.829L229.579 335.834Z" fill="var(--fill-0, #0B1220)"/>
<path id="Vector_8" d="M133.212 278.361C128.06 288.845 116.124 292.856 105.944 287.099L70.962 267.316C64.0916 263.428 58.5718 258.557 54.1891 251.951C48.4718 243.336 45.2741 233.322 45.3328 222.864L45.4182 207.344C45.4503 201.287 47.1158 195.364 50.18 190.258C56.4098 179.886 68.768 178.53 79.0602 184.442L109.846 202.136C114.507 204.812 118.788 207.509 122.615 211.387C131.109 219.98 136.057 231.431 136.757 243.678L136.858 262.905C136.885 268.272 135.63 273.437 133.207 278.361H133.212ZM113.466 271.482C117.848 270.745 120.726 267.69 122.466 264.176C124.356 260.362 124.446 256.464 124.575 252.228C124.954 239.837 119.754 228.232 109.376 221.315L77.1331 202.884C73.5297 200.822 69.9531 199.204 65.7038 199.119C60.9207 199.022 56.7515 201.645 54.52 205.784C52.2833 209.934 51.9577 214.377 51.8189 219.131C51.4398 231.96 57.6376 243.758 68.8587 250.183L101.753 269.031C105.223 271.017 109.254 272.187 113.46 271.477L113.466 271.482Z" fill="var(--fill-0, #EAF1FF)"/>
<path id="Vector_9" d="M223.072 261.42C220.974 262.761 219.239 262.307 217.365 261.217L188.655 244.537C188.068 240.697 186.846 237.728 183.008 234.886L200.784 223.377C202.14 222.496 204.163 222.464 205.647 223.329L245.914 246.839L223.072 261.425V261.42Z" fill="var(--fill-0, #EAF1FF)"/>
<path id="Vector_10" d="M384.624 107.496L379.617 110.22C379.654 104.548 378.736 97.6206 373.371 94.4107L293.297 46.4443L223.84 5.97644L220.52 4.68395C223.071 1.99215 226.056 1.51147 229.152 3.32737L297.503 43.3145L350.507 75.1462L379.393 92.7443C384.374 95.778 385.382 102.262 384.624 107.501V107.496Z" fill="var(--fill-0, #2F6BFF)"/>
<path id="Vector_11" d="M186.066 242.374C189.189 255.267 177.392 271.749 169.555 268.886C168.391 268.459 166.982 266.798 166.464 265.228C162.322 252.656 174.648 234.619 182.906 238.182C184.177 238.732 185.634 240.596 186.066 242.38V242.374Z" fill="var(--fill-0, #2F6BFF)"/>
<path id="Vector_12" d="M180.6 235.538C168.098 237.69 160.603 255.604 164.916 267.039C161.067 265.826 158.82 263.054 158.569 259.091C157.838 247.427 165.663 233.055 175.737 233.022C177.029 233.022 179.052 234.513 180.6 235.538Z" fill="var(--fill-0, #EAF1FF)"/>
<path id="Vector_13" d="M107.273 140.668C109.95 140.668 112.12 138.497 112.12 135.819C112.12 133.14 109.95 130.969 107.273 130.969C104.596 130.969 102.426 133.14 102.426 135.819C102.426 138.497 104.596 140.668 107.273 140.668Z" fill="var(--fill-0, #EAF1FF)"/>
<path id="Vector_14" d="M275.099 238.262L267.411 243.672L200.976 205.084L209.379 199.551L261.267 230.058L275.099 238.262Z" fill="var(--fill-0, #0B1220)"/>
<path id="Vector_15" d="M303.867 255.294L295.325 260.897L286.095 255.363L294.658 249.675L303.867 255.294Z" fill="var(--fill-0, #0B1220)"/>
<path id="Vector_16" d="M232.467 196.389L223.963 202.029L214.818 196.475L223.205 190.867L232.467 196.389Z" fill="var(--fill-0, #0B1220)"/>
<path id="Vector_17" d="M266.397 210.244L257.092 204.652L265.516 199.071L274.757 204.545L266.397 210.244Z" fill="var(--fill-0, #0B1220)"/>
<path id="Vector_18" d="M252.421 218.704L242.994 213.24L251.621 207.563L260.685 213.112L252.421 218.704Z" fill="var(--fill-0, #0B1220)"/>
<path id="Vector_19" d="M238.232 210.393L229.05 204.913L237.501 199.29L246.667 204.748L238.232 210.393Z" fill="var(--fill-0, #0B1220)"/>
<path id="Vector_20" d="M252.165 201.853L243.117 196.443L251.535 190.728L260.626 196.197L252.165 201.853Z" fill="var(--fill-0, #0B1220)"/>
<path id="Vector_21" d="M303.343 238.219L294.808 243.795L285.738 238.235L294.22 232.606L303.343 238.219Z" fill="var(--fill-0, #0B1220)"/>
<path id="Vector_22" d="M274.896 221.417L266.44 227.019L257.21 221.438L265.869 215.948L274.896 221.417Z" fill="var(--fill-0, #0B1220)"/>
<path id="Vector_23" d="M246.411 187.828L238.077 193.473L228.917 188.047L237.533 182.407L246.411 187.828Z" fill="var(--fill-0, #0B1220)"/>
<path id="Vector_24" d="M317.736 246.679L309.125 252.26L300.023 246.647L308.319 241.183L317.736 246.679Z" fill="var(--fill-0, #0B1220)"/>
<path id="Vector_25" d="M331.466 238.022L322.983 243.613L313.855 238.059L322.156 232.558L331.466 238.022Z" fill="var(--fill-0, #0B1220)"/>
<path id="Vector_26" d="M288.989 212.871L280.325 218.485L271.362 212.935L279.738 207.413L288.989 212.871Z" fill="var(--fill-0, #0B1220)"/>
<path id="Vector_27" d="M280.768 235.372L271.527 229.882L279.962 224.328L289.208 229.834L280.768 235.372Z" fill="var(--fill-0, #0B1220)"/>
<path id="Vector_28" d="M308.895 235.26L299.575 229.775L308.089 224.226L317.244 229.684L308.895 235.26Z" fill="var(--fill-0, #0B1220)"/>
<path id="Vector_29" d="M294.685 226.875L285.642 221.465L293.953 215.761L303.007 221.283L294.685 226.875Z" fill="var(--fill-0, #0B1220)"/>
<path id="Vector_30" d="M195.964 202.264L186.889 196.897L195.195 191.193L204.254 196.715L195.964 202.264Z" fill="var(--fill-0, #0B1220)"/>
<path id="Vector_31" d="M223.958 185.222L214.899 179.891L223.733 174.145L232.376 179.624L223.958 185.222Z" fill="var(--fill-0, #0B1220)"/>
<path id="Vector_32" d="M281.067 252.351L271.97 246.866L280.149 241.402L289.581 246.861L281.067 252.351Z" fill="var(--fill-0, #0B1220)"/>
<path id="Vector_33" d="M209.683 193.65L200.811 188.293L209.171 182.642L218.134 188.122L209.683 193.65Z" fill="var(--fill-0, #0B1220)"/>
<path id="Vector_34" d="M212.438 176.26C209.096 174.652 206.325 173.167 203.224 170.689L211.466 165.524L220.141 170.978L212.443 176.265L212.438 176.26Z" fill="var(--fill-0, #0B1220)"/>
<path id="Vector_35" d="M204.147 180.052L195.841 185.563L187.07 180.484L195.803 174.908L204.147 180.052Z" fill="var(--fill-0, #0B1220)"/>
<path id="Vector_36" d="M367.142 218.031C367.142 220.252 365.764 222.058 364.665 222.725C363.293 223.558 360.72 223.708 359.278 222.869L331.877 206.943L229.243 146.399C226.21 144.61 224.182 140.316 224.182 136.828L224.15 37.071C224.15 35.0468 225.735 33.0226 226.958 32.3764C228.463 31.5806 230.972 31.3296 232.718 32.3497L314.202 79.9743L360.132 107.117C364.504 109.702 367.131 113.547 367.131 118.845L367.142 218.025V218.031ZM365.257 118.909C365.278 114.231 362.561 110.562 358.718 108.559L316.07 83.4085L231.629 33.9947C230.604 33.3965 228.415 33.5995 227.678 34.1389C226.942 34.6783 226.109 36.318 226.114 37.4556L226.226 57.2061L365.166 138.243L365.252 118.904L365.257 118.909ZM360.079 221.064C361.451 221.871 363.01 221.609 363.618 221.107C364.147 220.664 365.246 219.232 365.246 218.399L365.284 140.577L226.205 59.4386L226.13 134.708C225.735 139.301 227.705 143.397 231.575 145.56L260.584 162.587L360.084 221.064H360.079Z" fill="var(--fill-0, #0B1220)"/>
<path id="Vector_37" d="M106.27 327.909C106.27 329.655 105.266 331.594 104.209 332.224C102.869 333.025 100.702 333.159 99.287 332.341L66.0988 313.269C63.2749 311.646 61.0168 309.05 61.0007 305.557L60.9367 292.231C60.9313 291.003 62.1431 289.219 63.04 288.696C63.9368 288.172 66.4084 287.804 67.4761 288.423L100.563 307.57C104.118 309.627 106.275 312.569 106.275 316.869V327.909H106.27ZM104.481 328.346L104.412 316.319C104.401 314.401 103.125 311.16 101.3 310.102L67.1291 290.335C66.243 289.823 64.5614 289.748 63.9315 290.213C63.3816 290.619 62.6343 292.077 62.6343 292.76L62.6663 304.526C62.677 308.243 65.0205 311.218 68.421 312.537L100.333 330.851C101.027 331.252 102.714 331.172 103.291 330.761C103.782 330.408 104.481 328.982 104.481 328.352V328.346Z" fill="var(--fill-0, #0B1220)"/>
<path id="Vector_38" d="M113.466 271.482C109.254 272.192 105.223 271.023 101.759 269.036L68.8641 250.188C57.643 243.758 51.4452 231.965 51.8242 219.136C51.963 214.383 52.2886 209.939 54.5254 205.789C56.7568 201.65 60.9207 199.028 65.7091 199.124C69.9638 199.209 73.5351 200.828 77.1384 202.889L109.382 221.321C119.759 228.237 124.959 239.837 124.58 252.234C124.452 256.469 124.361 260.368 122.471 264.181C120.731 267.701 117.848 270.75 113.471 271.487L113.466 271.482ZM73.3856 217.849C72.6489 217.011 70.7645 216.241 69.857 216.396C69.0509 216.535 67.5295 217.635 67.2092 218.479C63.9048 227.169 69.2111 236.617 73.7166 235.458C77.5495 234.47 79.0656 224.322 73.3856 217.854V217.849ZM105.757 236.238C104.828 235.095 103.109 234.31 101.753 234.411C97.5894 234.721 95.8225 245.632 101.881 252.372C102.672 253.254 104.727 253.831 105.714 253.59C109.659 252.623 110.743 242.369 105.757 236.238Z" fill="var(--fill-0, #0B1220)"/>
<path id="Vector_39" d="M360.079 221.064L260.578 162.587L231.57 145.56C227.7 143.397 225.73 139.306 226.125 134.708L226.2 59.4386L365.278 140.572L365.241 218.394C365.241 219.227 364.141 220.658 363.613 221.102C363.004 221.604 361.451 221.865 360.074 221.059L360.079 221.064ZM277.981 155.943L277.971 107.843L241.74 86.3246L240.33 86.4261C240.031 86.4475 239.791 87.5049 239.791 87.82L239.85 135.471L276.033 156.781C276.737 156.568 277.549 156.226 277.987 155.943H277.981ZM292.961 118.706L291.855 120.586L349.616 154.522L350.721 152.642L292.961 118.706ZM292.912 134.28L291.797 136.171L349.627 170.273L350.742 168.382L292.912 134.28ZM293.025 149.699L291.877 151.633L349.509 185.793L350.657 183.86L293.025 149.699ZM292.961 163.516L291.845 165.412L330.612 188.245L331.727 186.349L292.961 163.516Z" fill="var(--fill-0, #EAF1FF)"/>
<path id="Vector_40" d="M365.257 118.909L365.172 138.249L226.232 57.2115L226.12 37.4609C226.114 36.3233 226.942 34.6837 227.684 34.1442C228.426 33.6048 230.609 33.4018 231.634 34L316.075 83.4138L358.723 108.564C362.561 110.567 365.284 114.236 365.262 118.915L365.257 118.909ZM241.649 52.88C241.04 50.1882 238.2 47.4377 235.761 49.0773C233.497 50.5995 234.73 54.1298 236.375 55.8229C237.4 56.875 239.145 57.5213 240.245 57.0032C241.595 56.3676 242.054 54.6799 241.654 52.8854L241.649 52.88ZM254.877 63.7167C255.523 62.4188 255.181 59.8232 254.05 58.3064C253.297 57.2969 251.306 55.7748 249.736 56.608C247.227 57.9432 248.055 61.5002 249.736 63.3161C250.43 64.0638 251.562 64.7848 252.293 64.9664C252.918 65.1213 254.53 64.4163 254.882 63.722L254.877 63.7167ZM267.588 72.1553C269.894 70.4996 268.479 66.9159 266.926 65.383C265.757 64.2401 264.139 63.8449 262.869 64.7101C261.972 65.3136 261.593 66.9746 261.833 68.3259C262.265 70.772 265.132 73.9284 267.593 72.1606L267.588 72.1553Z" fill="var(--fill-0, #EAF1FF)"/>
<path id="Vector_41" d="M104.481 328.347C104.481 328.982 103.787 330.403 103.291 330.755C102.714 331.166 101.027 331.247 100.333 330.846L68.421 312.532C65.0205 311.213 62.677 308.238 62.6663 304.521L62.6343 292.755C62.6343 292.066 63.3816 290.613 63.9315 290.207C64.5614 289.743 66.2483 289.817 67.1291 290.33L101.3 310.097C103.131 311.154 104.401 314.396 104.412 316.313L104.481 328.341V328.347ZM75.0458 307.421C75.9159 306.855 75.6811 304.382 75.1899 303.426C74.5974 302.267 73.1561 300.932 71.6453 301.466C69.8303 302.107 70.0812 304.628 70.6844 305.755C71.4585 307.197 72.745 308.916 75.0458 307.416V307.421ZM85.0177 313.285C86.1601 312.415 85.8078 310.006 85.1192 308.954C84.4999 308.003 82.7116 306.898 81.5372 307.522C80.0158 308.334 80.2079 310.609 80.9606 311.955C81.5212 312.959 83.112 314.738 85.0177 313.291V313.285ZM95.358 319.235C96.3189 318.653 96.1214 316.127 95.5662 315.074C95.0538 314.102 93.3135 312.756 92.1817 313.248C90.1212 314.145 90.639 316.346 91.2582 317.745C91.8027 318.973 93.3135 320.474 95.358 319.235Z" fill="var(--fill-0, #2F6BFF)"/>
<path id="Vector_42" d="M105.757 236.238C110.743 242.369 109.659 252.618 105.714 253.59C104.732 253.831 102.677 253.254 101.881 252.372C95.8225 245.638 97.5894 234.726 101.753 234.411C103.109 234.31 104.828 235.1 105.757 236.238Z" fill="var(--fill-0, #EAF1FF)"/>
<path id="Vector_43" d="M73.3856 217.849C79.0655 224.317 77.5495 234.465 73.7166 235.453C69.211 236.617 63.9048 227.164 67.2092 218.474C67.5295 217.635 69.0509 216.53 69.857 216.391C70.7645 216.236 72.6489 217.005 73.3856 217.844V217.849Z" fill="var(--fill-0, #EAF1FF)"/>
<path id="Vector_44" d="M277.981 155.943C277.544 156.226 276.732 156.568 276.027 156.781L239.844 135.471L239.786 87.82C239.786 87.5049 240.026 86.4474 240.325 86.4261L241.734 86.3246L277.965 107.843L277.976 155.943H277.981ZM275.969 154.362L275.99 108.943L241.857 88.6265V134.382L275.969 154.367V154.362Z" fill="var(--fill-0, #0B1220)"/>
<path id="Vector_45" d="M292.976 118.724L291.873 120.603L349.63 154.547L350.733 152.668L292.976 118.724Z" fill="var(--fill-0, #0B1220)"/>
<path id="Vector_46" d="M292.925 134.296L291.81 136.187L349.639 170.294L350.753 168.403L292.925 134.296Z" fill="var(--fill-0, #0B1220)"/>
<path id="Vector_47" d="M293.036 149.716L291.89 151.65L349.517 185.815L350.663 183.881L293.036 149.716Z" fill="var(--fill-0, #0B1220)"/>
<path id="Vector_48" d="M292.976 163.533L291.86 165.429L330.62 188.263L331.736 186.367L292.976 163.533Z" fill="var(--fill-0, #0B1220)"/>
<path id="Vector_49" d="M241.649 52.88C242.055 54.6746 241.595 56.3623 240.239 56.9978C239.14 57.5159 237.399 56.875 236.369 55.8175C234.725 54.1298 233.492 50.5941 235.755 49.072C238.195 47.4323 241.04 50.1829 241.643 52.8747L241.649 52.88Z" fill="var(--fill-0, #0B1220)"/>
<path id="Vector_50" d="M254.877 63.7167C254.53 64.4163 252.918 65.116 252.288 64.9611C251.557 64.7795 250.43 64.0585 249.731 63.3108C248.049 61.5002 247.222 57.9378 249.731 56.6026C251.3 55.7694 253.292 57.2916 254.044 58.301C255.176 59.8178 255.518 62.4135 254.872 63.7113L254.877 63.7167Z" fill="var(--fill-0, #0B1220)"/>
<path id="Vector_51" d="M267.588 72.1553C265.127 73.9231 262.265 70.7666 261.828 68.3205C261.587 66.9693 261.966 65.3136 262.863 64.7047C264.139 63.8448 265.757 64.2347 266.92 65.3777C268.479 66.9105 269.888 70.4942 267.582 72.1499L267.588 72.1553Z" fill="var(--fill-0, #0B1220)"/>
<path id="Vector_52" d="M75.0458 307.421C72.745 308.922 71.4585 307.202 70.6844 305.76C70.0812 304.633 69.8303 302.112 71.6453 301.471C73.1561 300.937 74.5921 302.272 75.1899 303.431C75.6811 304.387 75.916 306.86 75.0458 307.426V307.421Z" fill="var(--fill-0, #0B1220)"/>
<path id="Vector_53" d="M95.358 319.235C93.3135 320.474 91.8027 318.973 91.2582 317.745C90.639 316.346 90.1212 314.14 92.1817 313.248C93.3135 312.756 95.0538 314.102 95.5662 315.074C96.1214 316.127 96.3189 318.653 95.358 319.235Z" fill="var(--fill-0, #0B1220)"/>
<path id="Vector_54" d="M85.0177 313.285C83.1173 314.733 81.5265 312.954 80.9606 311.95C80.2079 310.609 80.0158 308.329 81.5372 307.517C82.7063 306.892 84.4999 308.003 85.1192 308.948C85.8078 310.001 86.1601 312.415 85.0177 313.28V313.285Z" fill="var(--fill-0, #0B1220)"/>
<path id="Vector_55" d="M275.969 154.362L241.857 134.382L241.862 88.6265L275.995 108.943L275.969 154.362Z" fill="var(--fill-0, #2F6BFF)"/>
</g>
<defs>
<clipPath id="clip0_0_4">
<rect width="387" height="404" fill="white"/>
</clipPath>
</defs>
</svg>
