<svg width="72" height="74" viewBox="0 0 72 74" fill="none" xmlns="http://www.w3.org/2000/svg">
<rect width="72" height="74" rx="8" fill="white"/>
<path d="M8.99429 54H43L20.2336 48.1031C19.8862 48.0131 19.7439 47.5973 19.9633 47.3133L33.5589 29.7159C33.7723 29.4396 34.196 29.4616 34.3797 29.7584L47.1828 50.444C47.3476 50.7103 47.7138 50.7613 47.9451 50.5501L52.086 46.7693C52.3066 46.5679 52.6534 46.6035 52.8284 46.8456L58 54H64L53.8232 38.7593C53.6532 38.5047 53.2963 38.4613 53.0702 38.6678L48.5 42.8406L35.1574 20.903C34.6044 19.9937 33.3065 19.9336 32.6718 20.788L8.59292 53.2018C8.34785 53.5317 8.58333 54 8.99429 54Z" fill="#2566FD"/>
</svg>
