<svg width="230" height="67" viewBox="0 0 230 67" fill="none" xmlns="http://www.w3.org/2000/svg">
<rect x="3" y="5" width="61" height="58" rx="8" fill="white"/>
<path d="M8.90024 49.6892H39.6892L19.0764 44.3501C18.7619 44.2686 18.633 43.8922 18.8317 43.6351L31.1412 27.7022C31.3344 27.4521 31.718 27.472 31.8843 27.7407L43.4763 46.4696C43.6255 46.7107 43.9571 46.7568 44.1665 46.5657L47.9157 43.1424C48.1154 42.9601 48.4294 42.9924 48.5879 43.2116L53.2703 49.6892H58.7027L49.4886 35.8902C49.3346 35.6597 49.0115 35.6204 48.8068 35.8073L44.6689 39.5854L32.5885 19.723C32.0877 18.8997 30.9126 18.8453 30.3379 19.6189L8.53683 48.9665C8.31495 49.2652 8.52815 49.6892 8.90024 49.6892Z" fill="#2566FD"/>
<path d="M78.0324 49.2028C76.4486 49.2028 75.0385 48.8648 73.8024 48.1888C72.5662 47.4934 71.5908 46.547 70.8761 45.3494C70.1614 44.1519 69.8041 42.7901 69.8041 41.2642C69.8041 39.719 70.1614 38.3573 70.8761 37.179C71.5908 35.9815 72.5662 35.0447 73.8024 34.3686C75.0385 33.6926 76.4486 33.3546 78.0324 33.3546C79.6356 33.3546 81.0553 33.6926 82.2915 34.3686C83.5469 35.0447 84.5224 35.9718 85.2177 37.1501C85.9324 38.3283 86.2897 39.6997 86.2897 41.2642C86.2897 42.7901 85.9324 44.1519 85.2177 45.3494C84.5224 46.547 83.5469 47.4934 82.2915 48.1888C81.0553 48.8648 79.6356 49.2028 78.0324 49.2028ZM78.0324 46.1027C78.9209 46.1027 79.7129 45.9095 80.4082 45.5232C81.1036 45.1369 81.6444 44.5768 82.0307 43.8428C82.4363 43.1088 82.6391 42.2493 82.6391 41.2642C82.6391 40.2598 82.4363 39.4003 82.0307 38.6856C81.6444 37.9516 81.1036 37.3915 80.4082 37.0052C79.7129 36.6189 78.9306 36.4257 78.0614 36.4257C77.1729 36.4257 76.381 36.6189 75.6856 37.0052C75.0096 37.3915 74.4687 37.9516 74.0631 38.6856C73.6575 39.4003 73.4547 40.2598 73.4547 41.2642C73.4547 42.2493 73.6575 43.1088 74.0631 43.8428C74.4687 44.5768 75.0096 45.1369 75.6856 45.5232C76.381 45.9095 77.1632 46.1027 78.0324 46.1027ZM90.0426 49V33.5284H93.4904V37.7005L92.882 36.4257C93.4228 35.4406 94.2051 34.6873 95.2288 34.1658C96.2718 33.625 97.4694 33.3546 98.8214 33.3546C100.058 33.3546 101.159 33.596 102.124 34.0789C103.109 34.5618 103.882 35.3054 104.442 36.3098C105.002 37.2949 105.282 38.5697 105.282 40.1343V49H101.661V40.5978C101.661 39.2264 101.332 38.2027 100.676 37.5267C100.038 36.8507 99.1401 36.5126 97.9812 36.5126C97.1313 36.5126 96.3781 36.6865 95.7213 37.0342C95.0646 37.3818 94.5528 37.9034 94.1858 38.5987C93.8381 39.2747 93.6642 40.1343 93.6642 41.1773V49H90.0426ZM117.467 49.2028C115.748 49.2028 114.241 48.8648 112.947 48.1888C111.672 47.4934 110.678 46.547 109.963 45.3494C109.268 44.1519 108.92 42.7901 108.92 41.2642C108.92 39.719 109.258 38.3573 109.934 37.179C110.629 35.9815 111.576 35.0447 112.773 34.3686C113.99 33.6926 115.371 33.3546 116.916 33.3546C118.423 33.3546 119.765 33.683 120.944 34.3397C122.122 34.9964 123.049 35.9235 123.725 37.1211C124.401 38.3186 124.739 39.7286 124.739 41.3511C124.739 41.5057 124.729 41.6795 124.71 41.8726C124.71 42.0658 124.7 42.2493 124.681 42.4231H111.788V40.0184H122.769L121.349 40.7717C121.369 39.8832 121.185 39.1009 120.799 38.4249C120.412 37.7488 119.881 37.2177 119.205 36.8314C118.549 36.445 117.786 36.2519 116.916 36.2519C116.028 36.2519 115.246 36.445 114.57 36.8314C113.913 37.2177 113.391 37.7585 113.005 38.4538C112.638 39.1299 112.455 39.9315 112.455 40.8586V41.4381C112.455 42.3652 112.667 43.1861 113.092 43.9008C113.517 44.6154 114.116 45.1659 114.888 45.5522C115.661 45.9385 116.549 46.1317 117.554 46.1317C118.423 46.1317 119.205 45.9965 119.901 45.7261C120.596 45.4556 121.214 45.0307 121.755 44.4512L123.696 46.6822C123.001 47.4934 122.122 48.1212 121.06 48.5654C120.017 48.9903 118.819 49.2028 117.467 49.2028Z" fill="#2566FD"/>
<path d="M133.288 49.2028C131.994 49.2028 130.748 49.0386 129.551 48.7103C128.372 48.3626 127.436 47.9473 126.74 47.4644L128.131 44.712C128.826 45.1563 129.657 45.5232 130.623 45.813C131.588 46.1027 132.554 46.2476 133.52 46.2476C134.66 46.2476 135.48 46.093 135.983 45.784C136.504 45.475 136.765 45.0597 136.765 44.5382C136.765 44.1132 136.591 43.7945 136.243 43.5821C135.896 43.3503 135.442 43.1764 134.882 43.0605C134.322 42.9446 133.694 42.8384 132.998 42.7418C132.322 42.6453 131.637 42.5197 130.941 42.3652C130.265 42.1914 129.647 41.9499 129.087 41.6409C128.527 41.3125 128.073 40.8779 127.725 40.3371C127.378 39.7963 127.204 39.0816 127.204 38.1931C127.204 37.208 127.484 36.3581 128.044 35.6435C128.604 34.9095 129.386 34.3493 130.391 33.963C131.415 33.5574 132.622 33.3546 134.013 33.3546C135.056 33.3546 136.108 33.4705 137.171 33.7023C138.233 33.9341 139.112 34.2624 139.807 34.6873L138.416 37.4398C137.682 36.9955 136.939 36.6961 136.185 36.5416C135.452 36.3678 134.718 36.2809 133.984 36.2809C132.883 36.2809 132.062 36.445 131.521 36.7734C130.999 37.1018 130.739 37.517 130.739 38.0192C130.739 38.4828 130.912 38.8305 131.26 39.0623C131.608 39.2941 132.062 39.4775 132.622 39.6128C133.182 39.748 133.8 39.8639 134.476 39.9604C135.171 40.0377 135.857 40.1632 136.533 40.3371C137.209 40.5109 137.827 40.7524 138.387 41.0614C138.967 41.3511 139.43 41.7664 139.778 42.3072C140.126 42.8481 140.3 43.5531 140.3 44.4223C140.3 45.388 140.01 46.2283 139.43 46.9429C138.87 47.6576 138.069 48.2177 137.026 48.6234C135.983 49.0097 134.737 49.2028 133.288 49.2028ZM143.708 49V27.5021H147.33V37.7005L146.548 36.4257C147.088 35.4406 147.871 34.6873 148.894 34.1658C149.937 33.625 151.135 33.3546 152.487 33.3546C153.723 33.3546 154.824 33.596 155.79 34.0789C156.775 34.5618 157.548 35.3054 158.108 36.3098C158.668 37.2949 158.948 38.5697 158.948 40.1343V49H155.326V40.5978C155.326 39.2264 154.998 38.2027 154.341 37.5267C153.704 36.8507 152.806 36.5126 151.647 36.5126C150.797 36.5126 150.044 36.6865 149.387 37.0342C148.73 37.3818 148.218 37.9034 147.851 38.5987C147.504 39.2747 147.33 40.1343 147.33 41.1773V49H143.708ZM171.133 49.2028C169.413 49.2028 167.907 48.8648 166.613 48.1888C165.338 47.4934 164.343 46.547 163.629 45.3494C162.933 44.1519 162.586 42.7901 162.586 41.2642C162.586 39.719 162.924 38.3573 163.6 37.179C164.295 35.9815 165.241 35.0447 166.439 34.3686C167.656 33.6926 169.037 33.3546 170.582 33.3546C172.089 33.3546 173.431 33.683 174.609 34.3397C175.788 34.9964 176.715 35.9235 177.391 37.1211C178.067 38.3186 178.405 39.7286 178.405 41.3511C178.405 41.5057 178.395 41.6795 178.376 41.8726C178.376 42.0658 178.366 42.2493 178.347 42.4231H165.454V40.0184H176.435L175.015 40.7717C175.034 39.8832 174.851 39.1009 174.464 38.4249C174.078 37.7488 173.547 37.2177 172.871 36.8314C172.214 36.445 171.451 36.2519 170.582 36.2519C169.694 36.2519 168.911 36.445 168.235 36.8314C167.579 37.2177 167.057 37.7585 166.671 38.4538C166.304 39.1299 166.12 39.9315 166.12 40.8586V41.4381C166.12 42.3652 166.333 43.1861 166.758 43.9008C167.183 44.6154 167.781 45.1659 168.554 45.5522C169.327 45.9385 170.215 46.1317 171.219 46.1317C172.089 46.1317 172.871 45.9965 173.566 45.7261C174.262 45.4556 174.88 45.0307 175.421 44.4512L177.362 46.6822C176.666 47.4934 175.788 48.1212 174.725 48.5654C173.682 48.9903 172.485 49.2028 171.133 49.2028ZM182.173 49V33.5284H185.621V37.7875L185.215 36.5416C185.679 35.4986 186.403 34.7067 187.388 34.1658C188.393 33.625 189.639 33.3546 191.126 33.3546V36.8024C190.971 36.7637 190.827 36.7444 190.691 36.7444C190.556 36.7251 190.421 36.7155 190.286 36.7155C188.914 36.7155 187.823 37.1211 187.012 37.9323C186.201 38.7243 185.795 39.9121 185.795 41.496V49H182.173ZM203.064 49.2028C201.808 49.2028 200.659 48.9131 199.616 48.3336C198.592 47.7542 197.772 46.885 197.153 45.7261C196.555 44.5478 196.255 43.0605 196.255 41.2642C196.255 39.4486 196.545 37.9613 197.124 36.8024C197.723 35.6435 198.534 34.7839 199.558 34.2238C200.582 33.6443 201.75 33.3546 203.064 33.3546C204.59 33.3546 205.932 33.683 207.091 34.3397C208.269 34.9964 209.197 35.9139 209.873 37.0921C210.568 38.2703 210.916 39.661 210.916 41.2642C210.916 42.8674 210.568 44.2677 209.873 45.4653C209.197 46.6435 208.269 47.561 207.091 48.2177C205.932 48.8745 204.59 49.2028 203.064 49.2028ZM194.488 54.6208V33.5284H197.936V37.179L197.82 41.2932L198.11 45.4074V54.6208H194.488ZM202.658 46.1027C203.528 46.1027 204.3 45.9095 204.976 45.5232C205.672 45.1369 206.222 44.5768 206.628 43.8428C207.033 43.1088 207.236 42.2493 207.236 41.2642C207.236 40.2598 207.033 39.4003 206.628 38.6856C206.222 37.9516 205.672 37.3915 204.976 37.0052C204.3 36.6189 203.528 36.4257 202.658 36.4257C201.789 36.4257 201.007 36.6189 200.312 37.0052C199.616 37.3915 199.066 37.9516 198.66 38.6856C198.254 39.4003 198.052 40.2598 198.052 41.2642C198.052 42.2493 198.254 43.1088 198.66 43.8428C199.066 44.5768 199.616 45.1369 200.312 45.5232C201.007 45.9095 201.789 46.1027 202.658 46.1027ZM223.974 49V45.8709L223.771 45.2045V39.7286C223.771 38.6663 223.453 37.8454 222.815 37.2659C222.178 36.6672 221.212 36.3678 219.918 36.3678C219.049 36.3678 218.189 36.503 217.339 36.7734C216.509 37.0438 215.804 37.4205 215.224 37.9034L213.805 35.2668C214.635 34.6294 215.62 34.1562 216.76 33.8471C217.919 33.5188 219.116 33.3546 220.352 33.3546C222.593 33.3546 224.322 33.8954 225.539 34.9771C226.775 36.0394 227.393 37.6909 227.393 39.9315V49H223.974ZM219.107 49.2028C217.948 49.2028 216.934 49.0097 216.064 48.6234C215.195 48.2177 214.519 47.6672 214.036 46.9719C213.573 46.2572 213.341 45.4556 213.341 44.5671C213.341 43.6979 213.544 42.9157 213.949 42.2203C214.374 41.525 215.06 40.9745 216.006 40.5689C216.953 40.1632 218.208 39.9604 219.773 39.9604H224.264V42.3652H220.034C218.798 42.3652 217.967 42.568 217.542 42.9736C217.117 43.3599 216.905 43.8428 216.905 44.4223C216.905 45.079 217.165 45.6005 217.687 45.9868C218.208 46.3731 218.933 46.5663 219.86 46.5663C220.748 46.5663 221.54 46.3635 222.236 45.9578C222.95 45.5522 223.462 44.9534 223.771 44.1615L224.38 46.3345C224.032 47.2423 223.404 47.9473 222.496 48.4495C221.608 48.9517 220.478 49.2028 219.107 49.2028Z" fill="black"/>
</svg>
